<?xml version="1.0" standalone="no"?>
<!DOCTYPE svg PUBLIC "-//W3C//DTD SVG 1.1//EN" "http://www.w3.org/Graphics/SVG/1.1/DTD/svg11.dtd" >
<svg xmlns="http://www.w3.org/2000/svg">
<metadata>Generated by IcoMoon</metadata>
<defs>
<font id="icomoon" horiz-adv-x="1024">
<font-face units-per-em="1024" ascent="960" descent="-64" />
<missing-glyph horiz-adv-x="1024" />
<glyph unicode="&#x20;" horiz-adv-x="512" d="" />
<glyph unicode="&#xe900;" glyph-name="rc-icon-mastercard" d="M910.848 816.333h-797.696c-50.893 0-92.16-41.37-92.16-92.16v-552.141c0-50.893 41.37-92.16 92.16-92.16h797.696c50.79 0 92.16 41.37 92.16 92.16v552.038c0 50.79-41.267 92.16-92.16 92.262zM113.152 754.586h797.696c16.794 0 30.515-13.722 30.515-30.515v-91.853h-858.726v91.853c0 16.896 13.722 30.515 30.515 30.515zM910.848 141.312h-797.696c-16.794 0-30.515 13.722-30.515 30.515v398.746h858.726v-398.643c0-16.896-13.722-30.618-30.515-30.618zM754.278 509.235c-41.165 6.144-81.92-3.994-115.098-28.57-2.765-2.048-5.12-4.506-7.782-6.656-26.931 22.733-61.338 37.069-99.328 37.069-85.402 0-154.931-69.53-154.931-155.034 0-85.402 69.53-154.931 154.931-154.931 37.888 0 72.294 14.234 99.226 36.966 21.709-18.432 48.026-30.925 76.902-35.328 7.782-1.126 15.565-1.741 23.347-1.741 32.87 0 64.819 10.445 91.75 30.413 33.28 24.576 54.989 60.723 61.235 101.683 6.144 40.96-3.994 81.818-28.672 115.098-24.474 33.178-60.621 54.886-101.581 61.030zM532.070 262.656c-51.405 0-93.286 41.882-93.286 93.286s41.882 93.286 93.286 93.286 93.286-41.882 93.286-93.286c0.102-51.405-41.779-93.286-93.286-93.286zM823.603 342.118c-3.686-24.678-16.794-46.387-36.864-61.235-20.070-14.746-44.544-20.992-69.325-17.203-18.022 2.662-34.509 10.547-47.821 22.323 10.752 21.094 17.408 44.646 17.408 69.939 0 24.986-6.554 48.333-17.101 69.222 2.048 1.843 3.584 4.198 5.837 5.837 20.070 14.848 44.646 20.992 69.325 17.203 24.678-3.686 46.387-16.794 61.235-36.864 14.848-19.968 20.992-44.544 17.306-69.222z" />
<glyph unicode="&#xe901;" glyph-name="rc-icon-rewards" d="M811.315 887.091h-135.987c-16.998 0-30.822-13.824-30.822-30.822s13.824-30.822 30.822-30.822h136.090c13.005 0 23.552-10.547 23.552-23.552v-136.090c0-178.074-144.896-322.97-322.97-322.97s-322.97 144.896-322.97 322.97v135.987c0 13.005 10.547 23.552 23.552 23.552h136.090c16.998 0 30.822 13.824 30.822 30.822s-13.824 30.822-30.822 30.822h-135.987c-47.002 0-85.299-38.298-85.299-85.299v-136.090c0-201.626 156.16-367.206 353.792-383.078v-50.688c-20.582-2.355-41.165-6.758-61.235-13.824-78.95-27.955-140.186-89.19-168.141-168.141-3.379-9.421-1.946-19.866 3.891-28.058 5.734-8.192 15.155-13.005 25.19-13.005h461.926c10.035 0 19.456 4.813 25.19 13.005s7.27 18.637 3.891 28.058c-24.576 69.427-74.65 125.235-141.21 156.979-28.16 13.414-57.754 21.606-87.859 24.986v50.688c197.632 15.77 353.792 181.35 353.792 383.078v136.192c0 47.002-38.195 85.299-85.299 85.299zM694.17 70.554h-364.544c25.395 41.267 64.102 72.806 110.899 89.395 53.965 19.046 112.128 15.974 163.635-8.602 37.683-18.022 68.608-45.978 90.010-80.794zM332.39 716.083c-9.626-9.933-14.848-23.142-14.643-36.966 0.205-13.926 5.837-26.829 15.667-36.352l55.808-54.886-30.925-71.168c-6.246-14.95-5.12-32.256 2.97-46.387 14.438-24.883 46.387-33.382 70.963-19.149l79.77 44.851 79.36-44.749c8.090-4.71 17.203-7.066 26.317-7.066 6.861 0 13.722 1.331 20.070 3.994 12.902 5.427 22.938 15.462 28.16 28.365 5.325 12.902 5.222 27.136-0.307 40.346l-30.72 70.861 55.501 54.477c10.445 10.035 16.179 24.166 15.872 38.605-0.717 28.672-26.214 50.893-52.429 50.688h-58.266l-36.045 70.861c-0.205 0.512-0.512 1.024-0.717 1.536-5.018 9.83-13.21 18.022-23.040 23.040-12.493 6.349-26.726 7.373-40.038 3.072-13.312-4.403-24.064-13.619-30.413-26.112l-36.762-72.192h-57.549c-15.36 1.024-28.57-5.325-38.605-15.667zM447.488 670.208c11.571 0 22.221 6.554 27.546 16.896l36.966 72.704 37.069-73.011c5.222-10.342 15.872-16.896 27.546-16.896h53.965l-53.965-53.043c-9.114-8.909-11.776-22.63-6.656-34.304l27.853-64-70.554 39.731c-4.71 2.662-9.933 3.994-15.155 3.994s-10.445-1.331-15.155-3.994l-70.554-39.731 27.853 64c5.12 11.674 2.458 25.293-6.656 34.304l-54.067 53.146h53.965z" />
<glyph unicode="&#xe902;" glyph-name="rc-icon-chevron-right" d="M321.843-18.637c-22.118 0-44.134 8.397-60.928 25.293-33.69 33.69-33.69 88.269 0 121.958l319.488 319.488-319.488 319.488c-33.69 33.69-33.69 88.269 0 121.958s88.269 33.69 121.958 0l380.416-380.416c33.69-33.69 33.69-88.269 0-121.958l-380.416-380.416c-16.998-16.998-39.014-25.395-61.030-25.395z" />
<glyph unicode="&#xe903;" glyph-name="rc-icon-menu" d="M972.554-0.285h-921.047c-19.538 0-35.41 22.303-35.41 49.787s15.872 49.787 35.41 49.787h920.986c19.538 0 35.41-22.303 35.41-49.787s-15.667-49.787-35.348-49.787zM972.554 398.225h-921.047c-19.538 0-35.41 22.303-35.41 49.787s15.872 49.787 35.41 49.787h920.986c19.538 0 35.41-22.303 35.41-49.787s-15.667-49.787-35.348-49.787zM972.554 796.692h-921.047c-19.538 0-35.41 22.303-35.41 49.787s15.872 49.787 35.41 49.787h920.986c19.538 0 35.41-22.303 35.41-49.787s-15.667-49.787-35.348-49.787z" />
<glyph unicode="&#xe904;" glyph-name="rc-icon-arrow-down" d="M512.102 17.92c12.493 0 24.576 5.018 33.382 13.824l273.203 273.51c18.432 18.534 18.432 48.333-0.102 66.765-18.432 18.432-48.333 18.33-66.765-0.102l-192.717-193.024v651.981c0 26.010-21.094 47.206-47.206 47.206s-47.206-21.094-47.206-47.206v-651.571l-192.717 192.717c-18.432 18.432-48.333 18.432-66.765 0-9.216-9.216-13.824-21.299-13.824-33.382s4.608-24.166 13.824-33.382l272.794-272.794c8.602-8.909 20.48-14.541 33.894-14.541 0 0 0.102 0 0.102 0s0.102 0 0.102 0z" />
<glyph unicode="&#xe905;" glyph-name="rc-icon-arrow-left" d="M81.92 447.898c0-12.493 5.018-24.576 13.824-33.382l273.51-273.203c18.534-18.432 48.333-18.432 66.765 0.102 18.432 18.432 18.33 48.333-0.102 66.765l-193.024 192.717h651.981c26.010 0 47.206 21.094 47.206 47.206s-21.094 47.206-47.206 47.206h-651.571l192.717 192.717c18.432 18.432 18.432 48.333 0 66.765-9.216 9.216-21.299 13.824-33.382 13.824s-24.166-4.608-33.382-13.824l-272.794-272.794c-8.909-8.602-14.541-20.48-14.541-33.894 0 0 0-0.102 0-0.102s0-0.102 0-0.102z" />
<glyph unicode="&#xe906;" glyph-name="rc-icon-arrow-right" d="M942.080 448.102c0 12.493-5.018 24.576-13.824 33.382l-273.51 273.306c-18.534 18.432-48.333 18.432-66.765-0.102-18.432-18.432-18.33-48.333 0.102-66.765l193.024-192.819h-651.981c-26.112 0-47.206-21.197-47.206-47.206s21.094-47.206 47.206-47.206h651.571l-192.717-192.717c-18.432-18.432-18.432-48.333 0-66.765 9.216-9.216 21.299-13.824 33.382-13.824s24.166 4.608 33.382 13.824l272.794 272.794c8.909 8.602 14.541 20.48 14.541 33.894 0 0 0 0.102 0 0.102s0 0.102 0 0.102z" />
<glyph unicode="&#xe907;" glyph-name="rc-icon-arrow-up" d="M511.898 878.080c-12.493 0-24.576-5.018-33.382-13.824l-273.306-273.51c-18.432-18.534-18.432-48.333 0.102-66.765 18.432-18.432 48.333-18.33 66.765 0.102l192.819 193.024v-651.981c0-26.010 21.094-47.206 47.206-47.206s47.206 21.094 47.206 47.206v651.571l192.717-192.717c18.432-18.432 48.333-18.432 66.765 0 9.216 9.216 13.824 21.299 13.824 33.382s-4.608 24.166-13.824 33.382l-272.794 272.794c-8.602 8.909-20.48 14.541-33.894 14.541 0 0-0.102 0-0.102 0s-0.102 0-0.102 0z" />
<glyph unicode="&#xe908;" glyph-name="rc-icon-chevron-down" d="M45.363 638.259c0 22.118 8.397 44.134 25.293 60.928 33.69 33.69 88.269 33.69 121.958 0l319.488-319.488 319.488 319.488c33.69 33.69 88.269 33.69 121.958 0s33.69-88.269 0-121.958l-380.416-380.416c-33.69-33.69-88.269-33.69-121.958 0l-380.416 380.416c-16.998 16.896-25.395 38.912-25.395 61.030z" />
<glyph unicode="&#xe909;" glyph-name="rc-icon-chevron-left" d="M702.259 914.637c22.118 0 44.134-8.397 60.928-25.293 33.69-33.69 33.69-88.269 0-121.958l-319.488-319.488 319.488-319.488c33.69-33.69 33.69-88.269 0-121.958s-88.269-33.69-121.958 0l-380.416 380.416c-33.69 33.69-33.69 88.269 0 121.958l380.416 380.416c16.896 16.998 38.912 25.395 61.030 25.395z" />
<glyph unicode="&#xe90a;" glyph-name="rc-icon-chevron-up" d="M978.637 257.741c0-22.118-8.397-44.134-25.293-60.928-33.69-33.69-88.269-33.69-121.958 0l-319.488 319.488-319.488-319.488c-33.69-33.69-88.269-33.69-121.958 0s-33.69 88.269 0 121.958l380.416 380.416c33.69 33.69 88.269 33.69 121.958 0l380.416-380.416c16.998-16.896 25.395-38.912 25.395-61.030z" />
<glyph unicode="&#xe90b;" glyph-name="rc-icon-plus" d="M976.159 417.055h-928.317c-17.080 0-30.945 13.865-30.945 30.945s13.865 30.945 30.945 30.945h928.317c17.080 0 30.945-13.865 30.945-30.945s-13.865-30.945-30.945-30.945zM512-47.104c-17.080 0-30.945 13.865-30.945 30.945v928.317c0 17.080 13.865 30.945 30.945 30.945s30.945-13.865 30.945-30.945v-928.317c0-17.080-13.865-30.945-30.945-30.945z" />
<glyph unicode="&#xe90c;" glyph-name="rc-icon-times" d="M862.095 754.33l-656.425-656.425c-12.083-12.083-31.683-12.083-43.766 0s-12.083 31.683 0 43.766l656.425 656.425c12.083 12.083 31.683 12.083 43.766 0 12.073-12.083 12.073-31.683 0-43.766zM862.095 97.905c-12.083-12.083-31.683-12.083-43.766 0l-656.425 656.425c-12.083 12.083-12.083 31.683 0 43.766s31.683 12.083 43.766 0l656.425-656.425c12.073-12.083 12.073-31.683 0-43.766z" />
<glyph unicode="&#xe90d;" glyph-name="rc-icon-calendar" d="M912.261 817.418h-154.092v92.406c0 16.957-13.763 30.72-30.72 30.72s-30.72-13.763-30.72-30.72v-92.406h-369.623v92.406c0 16.957-13.763 30.72-30.72 30.72s-30.72-13.763-30.72-30.72v-92.406h-153.928c-50.913 0-92.324-41.411-92.324-92.324v-677.315c0-50.913 41.411-92.324 92.324-92.324h800.522c50.913 0 92.324 41.411 92.324 92.324v677.315c0 50.913-41.411 92.324-92.324 92.324zM111.739 755.978h153.928v-61.686c0-16.957 13.763-30.72 30.72-30.72s30.72 13.763 30.72 30.72v61.686h369.623v-61.686c0-16.957 13.763-30.72 30.72-30.72s30.72 13.763 30.72 30.72v61.686h154.092c17.039 0 30.884-13.865 30.884-30.884v-154.010h-862.29v154.010c0 17.019 13.844 30.884 30.884 30.884zM912.261 16.896h-800.522c-17.039 0-30.884 13.865-30.884 30.884v461.865h862.29v-461.844c0-17.039-13.844-30.904-30.884-30.904z" />
<glyph unicode="&#xe90e;" glyph-name="rc-icon-confirmed" d="M200.724-49.684c-9.564 0-19.149 2.232-28.058 6.758-20.828 10.568-33.792 31.662-33.833 55.009v840.622c0 51.282 41.718 92.979 92.979 92.979h560.374c51.282 0 92.979-41.718 92.979-92.979v-840.561c-0.061-23.429-13.025-44.503-33.833-55.071-20.828-10.568-45.507-8.622-64.389 5.12 0 0 0 0 0 0l-256.41 186.45c-11.080 8.069-25.989 8.069-37.089 0l-256.389-186.45c-10.813-7.885-23.532-11.878-36.332-11.878zM231.813 884.244c-17.388 0-31.539-14.152-31.539-31.539v-840.561c0-0.082 0.082-0.225 0.225-0.307 0.143-0.061 0.307-0.061 0.43 0.020l256.41 186.45c32.707 23.777 76.657 23.777 109.343 0l256.41-186.47c0.123-0.082 0.287-0.102 0.43-0.020 0.143 0.061 0.225 0.205 0.225 0.369v840.52c0 17.388-14.152 31.539-31.539 31.539h-560.394zM449.741 355.062c-16.527 0-32.072 6.431-43.745 18.125l-71.373 71.332c-12.001 12.001-12.001 31.437-0.020 43.438 12.001 12.001 31.437 12.001 43.438 0.020l71.393-71.352c0.184-0.184 0.41-0.164 0.553-0.020l227.082 227.021c12.001 12.001 31.457 12.001 43.438 0 12.001-12.001 12.001-31.457 0-43.438l-227.041-227.021c-11.674-11.674-27.197-18.104-43.725-18.104z" />
<glyph unicode="&#xe90f;" glyph-name="rc-icon-reward-status-approved" d="M236.198-33.28c-5.427 0-10.875 0.696-16.2 2.109-33.751 8.929-53.965 43.643-45.036 77.373 0.020 0.082 0.041 0.184 0.061 0.266l73.585 268.636-199.578 197.775c-10.609 10.527-17.142 24.515-18.412 39.383-1.434 16.773 3.768 33.096 14.602 45.957 10.793 12.8 25.907 20.644 42.578 22.139l241.009 23.9 126.403 250.327c0.041 0.061 0.061 0.123 0.102 0.184 6.103 11.899 15.606 21.402 27.505 27.505 31.171 15.995 69.55 3.666 85.545-27.505 0.041-0.061 0.061-0.143 0.102-0.205l126.259-250.327 240.64-23.859c15.811-1.085 30.454-8.028 41.329-19.599 11.448-12.186 17.449-28.099 16.916-44.81-0.532-16.568-7.414-31.949-19.415-43.356l-10.936-10.772c-12.083-11.899-31.539-11.776-43.438 0.307s-11.776 31.539 0.307 43.438l11.162 10.998c0.184 0.184 0.348 0.348 0.532 0.512 0.102 0.102 0.348 0.328 0.369 0.799s-0.205 0.717-0.307 0.819c-0.205 0.225-0.471 0.348-0.778 0.369-0.43 0.020-0.86 0.061-1.27 0.102l-257.987 25.58c-10.465 1.044-19.661 7.352-24.392 16.732l-133.775 265.216c-0.553 1.004-1.802 1.393-2.826 0.881-0.369-0.184-0.696-0.512-0.901-0.881l-133.919-265.216c-4.731-9.38-13.926-15.688-24.392-16.732l-257.987-25.58c-0.143-0.020-0.287-0.020-0.43-0.041-0.164-0.020-0.635-0.061-1.044-0.553s-0.369-0.963-0.369-1.126c0.020-0.369 0.184-0.696 0.451-0.963l212.316-210.391c7.864-7.803 10.936-19.251 8.008-29.942l-78.254-285.737c-0.225-0.983 0.369-1.966 1.352-2.232 0.43-0.102 0.901-0.061 1.311 0.143l149.852 74.26c15.196 7.537 33.628 1.311 41.165-13.885s1.311-33.628-13.885-41.165l-149.709-74.179c-8.786-4.403-18.473-6.656-28.221-6.656zM722.188-33.239h-0.164c-72.397 0.020-140.452 28.242-191.611 79.442-51.18 51.2-79.34 119.276-79.319 191.652 0 149.463 121.61 271.073 271.094 271.073s271.094-121.61 271.094-271.094c0-149.463-121.61-271.073-271.094-271.073zM722.188 447.488c-115.61 0-209.654-94.044-209.654-209.654-0.020-55.992 21.77-108.626 61.338-148.214s92.201-61.42 148.173-61.44l0.143-30.72v30.72c115.61 0 209.654 94.044 209.654 209.654s-94.044 209.654-209.654 209.654zM688.581 109.752c-13.066 0-25.743 4.198-36.393 12.186-2.253 1.7-4.424 3.564-6.41 5.55l-60.109 60.129c-12.001 12.001-12.001 31.457 0 43.438 12.001 12.001 31.437 12.001 43.438 0l59.535-59.535 115.978 154.563c10.179 13.558 29.43 16.323 43.008 6.144s16.323-29.45 6.144-43.008l-116.408-155.116c-9.748-13.005-23.982-21.422-40.079-23.716-2.908-0.43-5.816-0.635-8.704-0.635z" />
<glyph unicode="&#xe910;" glyph-name="rc-icon-reward-status-rejected" d="M236.198-33.28c-5.427 0-10.875 0.696-16.2 2.109-33.751 8.929-53.965 43.643-45.036 77.373 0.020 0.082 0.041 0.184 0.061 0.266l73.585 268.636-199.578 197.775c-10.609 10.527-17.142 24.515-18.412 39.383-1.434 16.773 3.768 33.096 14.602 45.957 10.793 12.8 25.907 20.644 42.578 22.139l241.009 23.9 126.403 250.327c0.041 0.061 0.061 0.123 0.102 0.184 6.103 11.899 15.606 21.402 27.505 27.505 31.171 15.995 69.55 3.666 85.545-27.505 0.041-0.061 0.061-0.143 0.102-0.205l126.259-250.327 240.64-23.859c15.811-1.085 30.454-8.028 41.329-19.599 11.448-12.186 17.449-28.099 16.916-44.81-0.532-16.568-7.414-31.949-19.415-43.356l-10.936-10.772c-12.083-11.899-31.539-11.776-43.438 0.307s-11.776 31.539 0.307 43.438l11.162 10.998c0.184 0.184 0.348 0.348 0.532 0.512 0.102 0.102 0.348 0.328 0.369 0.799s-0.205 0.717-0.307 0.819c-0.205 0.225-0.471 0.348-0.778 0.369-0.43 0.020-0.86 0.061-1.27 0.102l-257.987 25.58c-10.465 1.044-19.661 7.352-24.392 16.732l-133.775 265.216c-0.553 1.004-1.802 1.393-2.826 0.881-0.369-0.184-0.696-0.512-0.901-0.881l-133.919-265.216c-4.731-9.38-13.926-15.688-24.392-16.732l-257.987-25.58c-0.143-0.020-0.287-0.020-0.43-0.041-0.164-0.020-0.635-0.061-1.044-0.553s-0.369-0.963-0.369-1.126c0.020-0.369 0.184-0.696 0.451-0.963l212.316-210.391c7.864-7.803 10.936-19.251 8.008-29.942l-78.254-285.737c-0.225-0.983 0.369-1.966 1.352-2.232 0.43-0.102 0.901-0.061 1.311 0.143l149.852 74.26c15.196 7.537 33.628 1.311 41.165-13.885s1.311-33.628-13.885-41.165l-149.709-74.179c-8.786-4.403-18.473-6.656-28.221-6.656zM722.188-33.239h-0.164c-72.397 0.020-140.452 28.242-191.611 79.442-51.18 51.2-79.34 119.276-79.319 191.652 0 149.463 121.61 271.073 271.094 271.073s271.094-121.61 271.094-271.094c0-149.463-121.61-271.073-271.094-271.073zM722.188 447.488c-115.61 0-209.654-94.044-209.654-209.654-0.020-55.992 21.77-108.626 61.338-148.214s92.201-61.42 148.173-61.44l0.143-30.72v30.72c115.61 0 209.654 94.044 209.654 209.654s-94.044 209.654-209.654 209.654zM764.846 233.472l68.895 68.895c12.001 12.001 12.001 31.457 0 43.438-12.001 12.001-31.457 12.001-43.438 0l-68.895-68.895-68.895 68.895c-12.001 12.001-31.457 12.001-43.438 0-12.001-12.001-12.001-31.457 0-43.438l68.895-68.895-68.895-68.895c-12.001-12.001-12.001-31.457 0-43.438 6.001-6.001 13.865-8.991 21.729-8.991s15.729 2.99 21.729 8.991l68.895 68.895 68.895-68.895c6.001-6.001 13.865-8.991 21.729-8.991s15.729 2.99 21.729 8.991c12.001 12.001 12.001 31.457 0 43.438l-68.936 68.895z" />
<glyph unicode="&#xe911;" glyph-name="rc-icon-loading" d="M972.902 939.52c-16.957 0-30.72-13.763-30.72-30.72v-223.212c-104.346 189.46-323.727 291.348-540.795 241.275-243.773-56.238-406.2-286.085-377.815-534.651 28.365-248.463 238.244-435.732 488.305-435.732 0.082 0 0.205 0 0.307 0 16.957 0 30.72 13.763 30.7 30.74 0 16.957-13.763 30.7-30.72 30.7-0.102 0-0.184 0-0.287 0-218.767 0-402.432 163.881-427.254 381.276-24.842 217.477 117.289 418.591 330.588 467.804 198.717 45.855 399.667-53.903 485.192-234.66h-234.68c-16.957 0-30.72-13.763-30.72-30.72s13.763-30.72 30.72-30.72h278.528c1.27-0.082 2.54-0.082 3.83 0h24.822c16.957 0 30.72 13.763 30.72 30.72v307.18c0 16.957-13.742 30.72-30.72 30.72z" />
<glyph unicode="&#xe912;" glyph-name="rp-icon-booking-claim" d="M125.696 272.384c-11.008-0.256-19.968 8.448-20.224 19.456v331.776c0.256 11.008 9.472 19.712 20.224 19.456h549.12c11.008 0.256 19.968-8.448 20.224-19.456v-80.896c26.88 3.584 54.272 3.584 81.408 0v256.768c-0.512 22.016-18.688 39.424-40.704 39.168h-101.632c-5.376 0-9.984 4.096-10.24 9.728v0 38.912c-0.768 16.896-15.104 29.952-31.744 29.184-15.872-0.768-28.416-13.312-29.184-29.184v-146.432c-0.768-16.896-15.104-29.952-31.744-29.184-15.872 0.768-28.416 13.312-29.184 29.184v78.080c-0.256 11.008-9.472 19.712-20.224 19.456h-172.8c-5.376 0-9.984 4.096-10.24 9.728v0 39.168c-0.768 16.896-15.104 29.952-31.744 29.184-16.128-0.768-28.928-13.568-29.44-29.184v-146.432c-0.768-16.896-15.104-29.952-31.744-29.184-15.872 0.768-28.416 13.312-29.184 29.184v77.824c-0.256 11.008-9.472 19.712-20.224 19.456h-91.904c-22.016 0.512-40.192-17.152-40.704-39.168v-527.104c1.024-44.032 37.376-78.848 81.408-78.080h307.968c-4.096 25.856-4.608 52.224-1.792 78.080l-285.696 0.512zM948.941 330.872h-108.288l-57.344 127.488-0.512 1.024c-14.336 25.856-47.104 35.072-72.96 20.736-9.216-5.12-16.64-12.8-21.248-22.016l-57.344-127.488h-108.544c-20.48 0.768-39.168-11.008-47.36-29.696-7.68-19.2-2.56-40.96 13.056-54.528l94.72-80.896-52.736-116.48c-8.96-19.712-3.84-42.752 12.8-56.576 17.152-14.848 41.472-17.408 61.184-6.4l131.584 71.424 131.584-71.168c19.712-11.008 44.288-8.448 61.184 6.4 16.64 13.824 22.016 37.12 12.8 56.576l-52.992 116.48 95.488 81.664c15.104 13.568 19.968 35.072 12.288 53.76-8.192 18.688-26.88 30.464-47.36 29.696z" />
<glyph unicode="&#xe913;" glyph-name="rp-icon-calendar-small" d="M900.608 827.648h-128.768v68.864c0 27.904-22.784 50.688-50.688 50.688s-50.688-22.784-50.688-50.688v-68.864h-317.184v68.864c0 27.904-22.528 50.688-50.688 50.688s-50.688-22.784-50.688-50.688v-68.864h-128.512c-60.928 0-110.592-49.664-110.592-110.592v-657.664c0-60.928 49.664-110.592 110.592-110.592h777.472c60.928 0 110.592 49.408 110.592 110.592v657.664c-0.256 60.928-49.92 110.592-110.848 110.592zM123.392 726.272h128.512v-39.168c0-27.904 22.784-50.688 50.688-50.688s50.688 22.784 50.688 50.688v39.168h317.184v-39.168c0-27.904 22.784-50.688 50.688-50.688s50.688 22.784 50.688 50.688v39.168h128.768c5.12 0 9.216-4.096 9.216-9.216v-128.768h-795.648v128.768c0 5.12 4.096 9.216 9.216 9.216zM900.608 50.176h-777.216c-5.12 0-9.216 4.096-9.216 9.216v427.52h795.648v-427.776c0-4.864-4.096-8.96-9.216-8.96z" />
<glyph unicode="&#xe914;" glyph-name="rp-icon-charity" d="M511.232 439.040c4.096-4.096 9.728-6.4 15.616-6.4s11.52 2.304 15.616 6.4l161.792 161.792c32.768 32.768 50.176 70.656 50.432 109.824 0.256 35.584-13.824 69.632-38.912 94.464-24.832 25.088-58.368 39.168-93.44 38.912h-1.024c-34.56-0.768-68.096-13.568-94.208-36.352-67.84 55.296-145.152 42.496-189.44-2.048-47.872-47.872-59.136-133.888 12.032-205.056l161.536-161.536zM368.64 774.656c16.384 16.384 38.656 25.6 61.952 25.6 25.344 0 53.504-10.752 80.64-37.888 8.704-8.192 22.528-8.192 31.232 0 52.48 52.48 110.336 42.752 141.824 11.264s41.216-89.344-11.264-141.824l-146.176-146.176-146.176 146.176c-24.576 24.576-37.632 51.968-38.144 79.616-0.256 23.808 9.216 46.592 26.112 63.232zM986.368 386.816c-15.616 14.848-36.608 22.528-57.856 21.248-20.736-0.768-40.448-9.984-54.528-25.6l-105.472-103.424c-2.816-2.816-5.888-5.632-8.96-7.936 0.768 4.096 1.28 8.448 1.28 12.544-0.256 41.984-33.792 76.032-75.776 76.8-33.792 0.512-73.472 0.256-102.912 0.256h-28.16c-17.408 0-28.672 6.144-45.568 15.104-27.136 14.592-60.672 32.512-131.584 32.512-39.68 0-81.408-3.072-123.392-29.184-0.768 25.856-22.016 46.336-47.872 46.592h-115.712c-26.624 0-48.128-21.504-48.128-48.128v-277.76c0-26.624 21.504-48.128 48.128-48.128h115.968c26.624 0 48.128 21.504 48.128 48.128v0.768c72.96-28.672 199.424-36.608 314.88-36.608 56.576 0 110.848 1.792 154.368 4.096 53.76 2.56 92.928 16.896 116.48 42.24l150.784 164.864c29.696 31.744 27.904 81.664-4.096 111.616zM209.664 99.584c0-2.048-1.792-3.84-3.84-3.84h-115.968c-2.048 0-3.84 1.792-3.84 3.84v277.76c0 2.048 1.792 3.84 3.84 3.84h115.968c2.048 0 3.84-1.792 3.84-3.84v-277.76zM957.952 304.896c0 0-0.256 0 0 0l-150.784-164.864c-15.36-16.384-45.056-26.112-86.272-28.16-229.632-11.52-403.712 2.304-466.944 36.864v174.848c40.448 36.864 79.616 40.192 123.136 40.192 59.648 0 86.784-14.592 110.592-27.392 19.968-12.8 43.008-19.712 66.56-20.48h28.416c29.184 0 68.608 0.256 102.144-0.256 17.664-0.256 32-14.848 32-32.512 0-17.92-14.592-32.512-32.512-32.512h-206.080c-12.288 0-22.016-9.984-22.016-22.016 0-12.288 9.984-22.016 22.016-22.016h227.84c35.84 0 70.144 15.104 94.464 41.472l105.728 103.68c6.144 7.168 15.104 11.52 24.576 11.776 9.472 0.512 18.688-2.816 25.6-9.472 14.080-12.8 14.592-35.072 1.536-49.152z" />
<glyph unicode="&#xe915;" glyph-name="rp-icon-chevron-down" d="M878.848 743.68l-367.104-365.568-366.592 365.568-112.64-112.64 479.488-478.72 479.488 478.976-112.64 112.384z" />
<glyph unicode="&#xe916;" glyph-name="rp-icon-chevron-left" d="M807.68 81.152l-365.568 367.104 365.568 366.592-112.64 112.64-478.72-479.488 478.976-479.488 112.384 112.64z" />
<glyph unicode="&#xe917;" glyph-name="rp-icon-chevron-right" d="M216.32 814.848l365.568-366.848-365.568-366.848 112.64-112.64 478.72 479.488-478.976 479.488-112.384-112.64z" />
<glyph unicode="&#xe918;" glyph-name="rp-icon-chevron-up" d="M145.152 152.32l366.848 365.568 366.592-365.568 112.64 112.64-479.232 478.72-479.488-478.976 112.64-112.384z" />
<glyph unicode="&#xe919;" glyph-name="rp-icon-club-royal" d="M512 925.44h-2.816c-263.68-0.768-476.928-215.040-476.16-478.72s215.040-476.928 478.72-476.16h2.816c263.68 0.768 476.928 215.040 476.16 478.72-0.512 263.68-215.040 476.928-478.72 476.16zM514.304 22.784h-2.56c-234.752-0.768-425.728 189.184-426.496 423.936-0.768 235.008 189.184 425.984 423.936 426.496h2.56c231.68-1.536 419.584-188.416 422.4-420.096 3.072-234.752-184.832-427.52-419.84-430.336zM639.744 609.792l28.416-30.208-45.568-31.232-67.584 29.44v1.536l26.112 33.28c-21.76 22.272-45.824 43.776-68.352 66.816h-1.536c-22.272-23.296-46.080-45.312-67.328-67.584l26.368-32.768v-1.536l-67.584-30.208-45.056 30.72 27.648 30.464v2.304c-30.976 19.712-53.248 38.912-80.384 56.832l13.056-135.68 390.4 2.304 11.264 135.68c-26.88-18.432-48.896-37.888-79.872-57.856v-2.304zM324.864 462.336l144.64 0.512 0.768-156.672h-70.4c-15.616 0-32.512 16.128-28.928 27.136 5.376 15.104 16.384 27.392 30.72 34.304-2.56 0-51.2 35.328-73.728 50.432 1.024-9.728 17.92-137.472 18.176-139.52l167.168-62.208h2.56l166.4 64.256c0 2.048 15.616 129.792 16.64 139.776-22.528-15.36-70.656-51.456-72.96-51.456 14.592-6.656 25.856-18.944 31.232-33.792 3.328-10.752-13.056-27.392-28.672-27.648l-70.4-0.768-1.024 156.416 144.64 1.536 3.584 46.080-384.512-2.304 4.096-46.080z" />
<glyph unicode="&#xe91a;" glyph-name="rp-icon-face-id-error" d="M39.424 493.056v0c0.256 0 0.256 0 0 0 10.752 0 19.2 8.704 19.2 19.2v85.248c0 46.592 37.888 84.48 84.48 84.48h85.248c2.56 0 5.12 0.512 7.424 1.536 7.168 3.072 11.776 9.984 11.776 17.664 0 10.752-8.704 19.2-19.2 19.2h-84.992c-68.096 0-123.136-55.296-123.136-123.136v-85.248c0 0 0 0 0 0 0-10.24 8.704-18.944 19.2-18.944zM228.864-0.256h-85.504c-46.592 0-84.48 37.888-84.48 84.48v85.248c0 2.56-0.512 5.12-1.536 7.424-3.072 7.168-9.984 11.776-17.664 11.776-10.752 0-19.2-8.704-19.2-19.2v-85.248c0-68.096 55.296-123.136 123.136-123.136h85.248c10.752 0 19.2 8.704 19.2 19.2 0 10.752-8.704 19.456-19.2 19.456zM372.736 240.896h16.384c28.16 0 51.2 23.040 51.2 51.2v142.592c0 11.008-8.96 19.968-19.968 19.968s-19.968-8.96-19.968-19.968v-142.592c0-6.144-4.864-11.008-11.008-11.008h-16.384c-11.008 0-19.968-8.96-19.968-19.968-0.256-11.264 8.704-20.224 19.712-20.224zM571.648 682.24h85.248c0.768 0 1.536 0 2.048 0-6.4 12.288-11.52 25.088-15.104 38.656h-72.192c-2.56 0-5.12-0.512-7.424-1.536-7.168-3.072-11.776-9.984-11.776-17.664-0.256-10.752 8.448-19.456 19.2-19.456zM264.448 435.712c0 10.496-8.448 18.944-18.944 18.944s-18.944-8.448-18.944-18.944v-57.088c0 0 0 0 0 0 0-10.496 8.448-18.944 18.944-18.944v0c0 0 0 0 0 0 10.496 0 18.944 8.448 18.944 18.944v57.088zM741.376 512.512c0-0.256 0-0.256 0 0 0-10.752 8.704-19.2 19.2-19.2v0c0 0 0 0 0 0 10.496 0 19.2 8.704 19.2 19.2v65.536c-13.568 4.608-26.368 10.496-38.656 17.408v-82.944zM506.112 188.672c-59.904-55.296-152.064-55.296-211.968 0-8.192 7.424-20.736 6.912-28.16-1.024-7.424-8.192-6.912-20.736 1.024-28.416 36.352-33.536 83.712-52.224 133.12-51.968 49.408 0 97.024 18.432 133.12 51.968 0 0 0 0 0 0 8.192 7.424 8.704 20.224 1.024 28.416-7.424 8.192-19.968 8.704-28.16 1.024zM760.832 188.928c-10.752 0-19.2-8.704-19.2-19.2v-85.248c0-46.592-37.888-84.48-84.48-84.48h-85.248c-10.752 0-19.2-8.704-19.2-19.2 0-10.752 8.704-19.2 19.2-19.2h85.248c68.096 0 123.136 55.296 123.136 123.136v85.248c-0.256 10.24-8.96 18.944-19.456 18.944zM559.36 359.68c0 0 0 0 0 0 10.496 0 18.944 8.448 18.944 18.944v57.088c0 10.496-8.448 18.944-18.944 18.944s-18.944-8.448-18.944-18.944v-57.088c0 0 0 0 0 0 0-10.752 8.448-19.2 18.944-18.944v0zM848.128 934.912c-85.76 0-155.392-69.632-155.392-155.392s69.632-155.392 155.392-155.392c85.76 0 155.392 69.632 155.392 155.392 0 86.016-69.632 155.392-155.392 155.392zM832.256 873.472c0 8.704 7.168 15.872 15.872 15.872s15.872-7.168 15.872-15.872v-117.76c0-8.704-7.168-15.872-15.872-15.872s-15.872 7.168-15.872 15.872v117.76zM848.128 681.728c-10.496 0-19.2 8.448-19.2 19.2 0 10.496 8.448 19.2 19.2 19.2 10.496 0 19.2-8.448 19.2-19.2-0.256-10.752-8.704-19.2-19.2-19.2z" />
<glyph unicode="&#xe91b;" glyph-name="rp-icon-face-id-init" d="M39.424 493.056v0c0.256 0 0.256 0 0 0 10.752 0 19.2 8.704 19.2 19.2v85.248c0 46.592 37.888 84.48 84.48 84.48h85.248c2.56 0 5.12 0.512 7.424 1.536 7.168 3.072 11.776 9.984 11.776 17.664 0 10.752-8.704 19.2-19.2 19.2h-84.992c-68.096 0-123.136-55.296-123.136-123.136v-85.248c0 0 0 0 0 0 0-10.24 8.704-18.944 19.2-18.944zM228.864-0.256h-85.504c-46.592 0-84.48 37.888-84.48 84.48v85.248c0 2.56-0.512 5.12-1.536 7.424-3.072 7.168-9.984 11.776-17.664 11.776-10.752 0-19.2-8.704-19.2-19.2v-85.248c0-68.096 55.296-123.136 123.136-123.136h85.248c10.752 0 19.2 8.704 19.2 19.2 0 10.752-8.704 19.456-19.2 19.456zM372.736 240.896h16.384c28.16 0 51.2 23.040 51.2 51.2v142.592c0 11.008-8.96 19.968-19.968 19.968s-19.968-8.96-19.968-19.968v-142.592c0-6.144-4.864-11.008-11.008-11.008h-16.384c-11.008 0-19.968-8.96-19.968-19.968-0.256-11.264 8.704-20.224 19.712-20.224zM571.648 682.24h85.248c0.768 0 1.536 0 2.048 0-6.4 12.288-11.52 25.088-15.104 38.656h-72.192c-2.56 0-5.12-0.512-7.424-1.536-7.168-3.072-11.776-9.984-11.776-17.664-0.256-10.752 8.448-19.456 19.2-19.456zM264.448 435.712c0 10.496-8.448 18.944-18.944 18.944s-18.944-8.448-18.944-18.944v-57.088c0 0 0 0 0 0 0-10.496 8.448-18.944 18.944-18.944v0c0 0 0 0 0 0 10.496 0 18.944 8.448 18.944 18.944v57.088zM741.376 512.512c0-0.256 0-0.256 0 0 0-10.752 8.704-19.2 19.2-19.2v0c0 0 0 0 0 0 10.496 0 19.2 8.704 19.2 19.2v65.536c-13.568 4.608-26.368 10.496-38.656 17.408v-82.944zM506.112 188.672c-59.904-55.296-152.064-55.296-211.968 0-8.192 7.424-20.736 6.912-28.16-1.024-7.424-8.192-6.912-20.736 1.024-28.416 36.352-33.536 83.712-52.224 133.12-51.968 49.408 0 97.024 18.432 133.12 51.968 0 0 0 0 0 0 8.192 7.424 8.704 20.224 1.024 28.416-7.424 8.192-19.968 8.704-28.16 1.024zM760.832 188.928c-10.752 0-19.2-8.704-19.2-19.2v-85.248c0-46.592-37.888-84.48-84.48-84.48h-85.248c-10.752 0-19.2-8.704-19.2-19.2 0-10.752 8.704-19.2 19.2-19.2h85.248c68.096 0 123.136 55.296 123.136 123.136v85.248c-0.256 10.24-8.96 18.944-19.456 18.944zM559.36 359.68c0 0 0 0 0 0 10.496 0 18.944 8.448 18.944 18.944v57.088c0 10.496-8.448 18.944-18.944 18.944s-18.944-8.448-18.944-18.944v-57.088c0 0 0 0 0 0 0-10.752 8.448-19.2 18.944-18.944v0zM847.36 934.912c-86.272 0-156.416-69.888-156.416-156.416 0-86.272 69.888-156.416 156.416-156.416 86.272 0 156.416 69.888 156.416 156.416s-70.144 156.416-156.416 156.416zM725.248 778.496c0 8.704 7.168 15.872 15.872 15.872h32c8.704 0 15.872-7.168 15.872-15.872s-7.168-15.872-15.872-15.872h-32c-8.704 0-15.872 7.168-15.872 15.872zM805.12 713.984l-22.528-22.528c-6.144-5.888-15.872-5.888-22.272 0-6.4 6.144-6.656 16.128-0.512 22.528l22.528 22.528c3.072 3.072 6.912 4.608 11.264 4.608v0c4.096 0 8.192-1.792 11.264-4.608 6.4-6.144 6.4-16.384 0.256-22.528zM807.68 818.688c-6.144-6.144-16.384-6.144-22.528 0l-22.528 22.528c-6.144 6.144-6.144 16.384 0 22.528 6.4 5.888 16.128 5.888 22.528 0l22.528-22.528c6.4-6.144 6.4-16.384 0-22.528zM863.232 672.256c0-8.704-7.168-15.872-15.872-15.872s-15.872 7.168-15.872 15.872v32c0 8.704 7.168 15.872 15.872 15.872s15.872-7.168 15.872-15.872v-32zM863.232 852.992c0-8.704-7.168-15.872-15.872-15.872s-15.872 7.168-15.872 15.872v32c0 8.704 7.168 15.872 15.872 15.872s15.872-7.168 15.872-15.872v-32zM888.576 842.752l22.528 22.528c3.072 3.072 6.912 4.608 11.264 4.608s8.192-1.792 11.264-4.608c6.144-6.144 6.144-16.384 0-22.528l-22.528-22.528c-6.144-6.144-16.384-6.144-22.528 0-6.4 6.144-6.4 16.384 0 22.528zM935.68 691.456c-6.144-6.4-16.128-6.656-22.528-0.512l-22.528 22.528c-6.144 6.144-6.144 16.384 0 22.528v0c0 0 0 0 0 0 6.144 6.144 16.384 6.144 22.528 0l22.528-22.528c5.888-6.144 5.888-15.872 0-22.016zM953.6 762.624h-32c-8.704 0-15.872 7.168-15.872 15.872s7.168 15.872 15.872 15.872h32c8.704 0 15.872-7.168 15.872-15.872 0.256-8.704-6.912-15.872-15.872-15.872z" />
<glyph unicode="&#xe91c;" glyph-name="rp-icon-face-id" d="M842.496-40.96h-109.824c-13.824 0-24.832 11.008-24.832 24.832s11.008 24.832 24.832 24.832v0h109.824c60.16 0 108.8 48.896 108.8 108.8v109.824c0 13.824 11.008 24.832 24.832 24.832s24.832-11.008 24.832-24.832v0-109.824c0-87.552-70.912-158.464-158.464-158.464zM291.328-40.96h-109.824c-87.552 0-158.464 70.912-158.464 158.464v109.824c0 13.824 11.264 24.832 24.832 24.832 9.984 0 18.944-5.888 22.784-15.104 1.28-3.072 2.048-6.4 2.048-9.728v-109.824c0-60.16 48.896-108.8 108.8-108.8h109.824c13.824 0 24.832-11.008 24.832-24.832s-11.008-24.832-24.832-24.832v0zM512 147.2c-63.488 0-124.672 23.808-171.264 67.072-10.496 9.728-11.008 25.856-1.536 36.352 9.728 10.496 25.856 11.008 36.352 1.536v0c77.056-71.168 195.84-71.168 272.64 0 10.496 9.728 26.88 8.96 36.352-1.536 9.728-10.496 8.96-26.88-1.536-36.352-46.336-43.264-107.52-67.072-171.008-67.072zM497.664 318.976h-20.992c-14.336 0-25.856 11.52-25.856 25.856s11.52 25.856 25.856 25.856c0 0 0 0 0 0h20.992c7.936 0 14.336 6.4 14.336 14.336v183.296c0 14.336 11.52 25.856 25.856 25.856s25.856-11.52 25.856-25.856c0 0 0 0 0 0v-183.296c-0.256-36.352-29.696-65.792-66.048-66.048zM716.8 471.808c-13.312 0-24.32 10.752-24.32 24.32 0 0 0 0 0 0v73.472c0 13.568 11.008 24.32 24.32 24.32 13.568 0 24.32-11.008 24.32-24.32v-73.472c0-13.312-10.752-24.32-24.32-24.32 0 0 0 0 0 0zM312.832 471.808c-13.312 0-24.32 10.752-24.32 24.32 0 0 0 0 0 0v73.472c0 13.568 11.008 24.32 24.32 24.32 13.568 0 24.32-11.008 24.32-24.32v-73.472c0-13.312-10.752-24.32-24.32-24.32v0zM976.128 643.84c-13.824 0-24.832 11.008-24.832 24.832 0 0 0 0 0 0v109.824c0 60.16-48.64 108.8-108.8 108.8h-109.824c-13.824 0-24.832 11.264-24.832 24.832 0 9.984 5.888 18.944 15.104 22.784 3.072 1.28 6.4 2.048 9.728 2.048h109.824c87.552 0 158.464-70.912 158.464-158.464v-109.824c0-13.824-11.008-24.832-24.832-24.832 0 0 0 0 0 0v0zM47.872 643.84c-13.824 0-24.832 11.008-24.832 24.832 0 0 0 0 0 0v109.824c0 87.552 70.912 158.464 158.464 158.464h109.824c13.824 0 24.832-11.264 24.832-24.832 0-9.984-5.888-18.944-15.104-22.784-3.072-1.28-6.4-2.048-9.728-2.048h-109.824c-60.16 0-108.8-48.896-108.8-108.8v-109.824c0-13.824-11.008-24.832-24.832-24.832 0 0 0 0 0 0v0z" />
<glyph unicode="&#xe91d;" glyph-name="rp-icon-hamburger" d="M958.72 13.033h-893.44c-18.944 0-34.304 21.76-34.304 48.384s15.36 48.384 34.304 48.384h893.44c18.944 0 34.304-21.76 34.304-48.384s-15.104-48.384-34.304-48.384zM958.72 399.734h-893.44c-18.944 0-34.304 21.76-34.304 48.384s15.36 48.384 34.304 48.384h893.44c18.944 0 34.304-21.76 34.304-48.384 0-26.88-15.104-48.384-34.304-48.384zM958.72 786.176h-893.44c-18.944 0-34.304 21.76-34.304 48.384s15.36 48.384 34.304 48.384h893.44c18.944 0 34.304-21.76 34.304-48.384s-15.104-48.384-34.304-48.384z" />
<glyph unicode="&#xe91e;" glyph-name="rp-icon-learn" d="M680.96 872.96c4.096 9.728-0.512 20.992-10.24 24.832-9.728 4.096-20.992-0.512-24.832-10.24l-30.72-74.24c12.032-4.096 23.808-8.96 35.328-14.592l30.464 74.24zM530.944 828.416v81.92c0 10.496-8.448 18.944-18.944 18.944s-18.944-8.448-18.944-18.944v-81.664c6.4 0.256 12.544 1.024 18.944 1.024 6.4-0.256 12.8-0.768 18.944-1.28zM343.040 872.96l30.72-74.24c11.52 5.632 23.296 10.496 35.328 14.592l-30.72 74.24c-4.096 9.728-15.104 14.336-24.832 10.496 0 0 0 0 0 0-9.728-4.352-14.592-15.36-10.496-25.088 0 0 0 0 0 0zM810.496 617.984l73.984 30.72c9.728 4.096 14.336 15.104 10.24 24.832 0 0 0 0 0 0-4.096 9.728-15.104 14.336-24.832 10.24 0 0 0 0 0 0l-73.984-30.72c5.376-11.264 10.24-23.040 14.592-35.072zM218.88 781.056l56.832-56.832c8.448 9.472 17.408 18.688 26.624 27.136l-56.32 56.576c-7.424 7.424-19.456 7.424-26.88 0-7.68-7.424-7.68-19.456-0.256-26.88 0 0 0 0 0 0zM748.032 724.224l56.832 56.832c7.424 7.424 7.424 19.456 0 26.88 0 0 0 0 0 0-7.424 7.424-19.456 7.424-26.88 0l-56.576-56.576c9.472-8.704 18.432-17.664 26.624-27.136zM907.264 534.016c0 0 0 0 0 0h-79.36c0.256-5.888 0.768-12.032 0.768-17.92 0-6.912-0.256-13.568-0.768-20.224h79.36c10.496 0 18.944 8.448 18.944 18.944 0.256 10.752-8.448 19.2-18.944 19.2zM804.864 248.832l-53.76 53.76c-8.448-11.264-16.64-21.248-24.064-29.952l50.944-50.944c3.584-3.584 8.448-5.632 13.568-5.632s9.984 2.048 13.568 5.632c7.168 7.68 7.168 19.712-0.256 27.136 0 0 0 0 0 0zM139.52 648.704l73.984-30.72c4.096 12.032 9.216 23.808 14.592 35.072l-74.24 30.72c-9.728 4.096-20.992-0.512-24.832-10.24s0.768-20.992 10.496-24.832zM219.136 248.832c-7.424-7.424-7.424-19.456 0-26.88 0 0 0 0 0 0 3.584-3.584 8.448-5.632 13.568-5.632s9.984 2.048 13.568 5.632l50.944 50.944c-7.424 8.704-15.616 18.688-24.064 29.952l-54.016-54.016zM884.48 381.184c0 0 0 0.256 0 0l-73.728 30.464c-4.096-12.032-8.96-23.808-14.592-35.328l73.472-30.464c2.304-1.024 4.864-1.536 7.168-1.536 7.68 0 14.592 4.608 17.664 11.776 4.352 9.984-0.256 21.248-9.984 25.088zM195.072 516.096c0 5.888 0.512 12.032 0.768 17.92h-79.36c-10.496 0-18.944-8.448-18.944-18.944s8.448-18.944 18.944-18.944h79.36c-0.256 6.4-0.768 13.056-0.768 19.968zM212.992 411.904l-73.728-30.464c-9.728-4.096-14.336-15.104-10.24-24.832 0 0 0 0 0 0 3.072-7.168 9.984-11.776 17.664-11.776 2.56 0 4.864 0.512 7.168 1.536l73.472 30.464c-5.12 11.264-9.984 23.040-14.336 35.072zM512 767.232c-160.768 0-260.352-133.376-260.352-257.024 0-105.984 65.024-179.968 99.84-219.904l5.376-6.144c32.256-37.12 32.768-96 32.768-96.512v-67.072c0-44.8 36.608-61.184 61.184-61.184h122.624c24.576 0 61.184 16.384 61.184 61.184v66.816c0 0.512 0.512 59.392 32.768 96.512l5.376 6.144c34.816 39.68 99.84 113.92 99.84 219.904-0.256 159.232-135.424 257.28-260.608 257.28zM643.84 315.648l-5.376-6.144c-41.728-47.872-42.24-118.528-42.24-121.6v-67.072c1.024-11.776-7.68-22.016-19.2-23.040-1.28 0-2.56 0-3.584 0h-122.368c-11.776-1.024-22.016 7.424-23.040 19.2 0 1.28 0 2.56 0 3.84v67.072c0 3.072-0.512 73.472-42.24 121.6l-5.376 6.144c-31.488 36.096-90.368 103.168-90.368 194.816 0 149.248 132.608 218.88 222.208 218.88 151.552 0 222.208-130.56 222.208-218.88-0.256-91.904-59.136-158.72-90.624-194.816zM477.696 660.736c-2.56 10.24-12.8 16.384-23.040 13.824-77.056-18.944-118.528-96.768-118.528-160.512 0-41.984 15.104-83.2 46.592-126.464 7.168-9.728 14.080-18.432 19.968-25.856 3.584-4.608 9.216-7.168 14.848-7.168 4.352 0 8.448 1.536 12.032 4.096 8.192 6.656 9.472 18.688 2.816 26.88-5.632 6.912-12.032 15.104-18.688 24.32-26.88 37.12-39.424 70.144-39.424 104.192 0 41.984 27.648 108.288 89.6 123.392 9.984 2.816 16.384 13.056 13.824 23.296 0 0 0 0 0 0zM583.424 48.64h-131.328c-10.496 0-18.944-8.448-18.944-18.944s8.448-18.944 18.944-18.944c0 0 0 0 0 0h131.328c10.496 0 18.944 8.448 18.944 18.944 0 0 0 0 0 0 0.256 10.496-8.448 18.944-18.944 18.944zM555.776 4.864h-80.64c-10.496 0-18.944-8.448-18.944-18.944s8.448-18.944 18.944-18.944h80.64c10.496 0 18.944 8.448 18.944 18.944s-8.448 18.944-18.944 18.944z" />
<glyph unicode="&#xe91f;" glyph-name="rp-icon-link-external" d="M468.262 724.623c0 32.256-26.112 58.112-58.112 58.112h-203.52c-96.256 0-174.336-78.080-174.336-174.336v-465.152c0-96.256 78.080-174.336 174.336-174.336h465.152c96.256 0 174.336 78.080 174.336 174.336v145.408c0 32.256-26.112 58.112-58.112 58.112s-58.112-26.112-58.112-58.112v-145.408c0-32.256-26.112-58.112-58.112-58.112h-465.152c-32 0-58.112 26.112-58.112 58.112v465.152c0 32.256 26.112 58.112 58.112 58.112h203.52c32 0 58.112 26.112 58.112 58.112zM380.966 230.287c23.040 0 45.312 9.216 61.696 25.6l376.064 375.552c5.632 5.632 14.848 5.632 20.48 0l102.912-102.656c11.264-11.264 29.696-11.52 41.216 0 5.376 5.376 8.448 12.8 8.448 20.736v348.928c0 16.128-13.056 29.184-29.184 29.184h-348.672c-16.128 0-29.184-13.056-29.184-29.184 0-7.68 3.072-15.104 8.448-20.48l102.4-102.4c2.816-2.816 4.096-6.4 4.352-10.24 0-3.84-1.536-7.68-4.352-10.24l-376.32-375.296c-34.048-34.048-34.048-89.344 0-123.392 16.384-16.896 38.656-26.112 61.696-26.112v0z" />
<glyph unicode="&#xe920;" glyph-name="rp-icon-mastercard-default" d="M889.856 788.224h-755.712c-58.88 0-106.496-47.616-106.496-106.496v-467.2c0-58.88 47.616-106.496 106.496-106.496h755.712c58.88 0 106.496 47.616 106.496 106.496v467.2c0 58.624-47.616 106.24-106.496 106.496zM78.592 681.728c0 30.72 24.832 55.552 55.552 55.552h755.712c30.72 0 55.552-24.832 55.552-55.552v-32.768h-866.816v32.768zM945.664 214.272c0-30.72-24.832-55.552-55.552-55.552h-755.968c-30.72 0-55.552 24.832-55.552 55.552v316.16h867.072v-316.16zM175.872 221.44c0 0 0 0 0 0h80.384c14.080 0 25.344 11.52 25.344 25.344 0 14.080-11.264 25.344-25.344 25.344h-80.384c-14.080 0-25.344-11.264-25.344-25.344s11.264-25.344 25.344-25.344zM342.272 221.44h219.648c14.080 0 25.344 11.264 25.344 25.344s-11.264 25.344-25.344 25.344c0 0 0 0 0 0h-219.648c-14.080 0-25.344-11.52-25.344-25.344-0.256-13.824 11.264-25.344 25.344-25.344z" />
<glyph unicode="&#xe921;" glyph-name="rp-icon-mastercard-transfer-alt" d="M912.694 618.588h-376.832c1.024-9.984 1.536-19.968 1.792-29.952 0-31.744-5.632-63.232-16.384-92.928h449.024c4.608 0 8.192 3.584 8.192 8.192v0 49.152c0 36.096-29.44 65.536-65.792 65.536 0.256 0 0.256 0 0 0zM970.294 413.788h-495.104c-60.16-75.52-155.392-113.92-251.136-101.376v-152.832c0-36.096 29.44-65.536 65.536-65.536h622.848c36.096 0 65.536 29.44 65.536 65.536v245.76c0.256 4.608-3.328 8.192-7.68 8.448zM863.542 184.156h-98.304c-13.568 0.512-24.32 11.776-23.808 25.344 0.512 13.056 10.752 23.296 23.808 23.808h98.304c13.568-0.512 24.32-11.776 23.808-25.344-0.256-12.8-10.752-23.296-23.808-23.808zM409.398 739.42c-83.2 83.2-218.112 83.2-301.312 0s-83.2-218.112 0-301.312c83.2-83.2 218.112-83.2 301.312 0 39.936 39.936 62.464 94.208 62.464 150.784 0 56.32-22.528 110.592-62.464 150.528zM367.414 491.612c0-6.656-5.376-12.032-12.032-12.032l-167.936 0.768c-17.92 0.768-31.744 16.128-30.72 33.792 0.768 16.64 14.080 29.952 30.72 30.72l65.536-1.28c1.792 0 3.072 1.28 3.072 3.072 0 0.768-0.256 1.536-0.768 2.304l-100.096 100.096c-9.728 11.776-7.936 29.44 4.096 39.168 0 0 0 0 0 0 7.168 7.168 25.6 17.664 38.912 4.096l100.608-100.608c1.28-1.28 3.072-1.28 4.352 0 0.768 0.512 1.024 1.536 1.024 2.56v64.512c1.024 17.92 16.384 31.488 34.304 30.464 16.384-1.024 29.44-14.080 30.464-30.464l-1.536-167.168z" />
<glyph unicode="&#xe922;" glyph-name="rp-icon-mastercard-transfer-success" d="M224.2 241.382h-67.84c-11.776 0-21.504-9.472-21.504-21.504 0-11.776 9.472-21.504 21.504-21.504 0 0 0 0 0 0h67.84c11.776 0 21.504 9.472 21.504 21.504 0 11.776-9.728 21.504-21.504 21.504 0 0 0 0 0 0v0zM481.992 241.382h-185.6c-11.776 0-21.504-9.728-21.504-21.504s9.728-21.504 21.504-21.504h185.6c11.776 0 21.504 9.728 21.504 21.504s-9.728 21.504-21.504 21.504zM819.712 391.68c-4.608 0-8.96 0.512-13.568 0.768v-199.936c0-25.856-20.992-46.848-46.848-46.848h-638.208c-25.856 0-46.848 20.992-47.104 46.848v267.008h583.424c-27.392 27.904-47.36 62.208-57.6 100.096h-525.824v27.648c0 25.856 20.992 46.848 47.104 46.848h471.040c0.768 14.592 3.072 28.928 6.656 43.008h-477.952c-49.664 0-89.856-40.192-89.856-89.856v-394.496c0-49.664 40.192-89.856 89.856-89.856h638.208c49.664 0 89.856 40.192 89.856 89.856v201.216c-9.728-1.536-19.456-2.304-29.184-2.304zM819.456 793.6c-96 0-173.568-77.824-173.568-173.568s77.824-173.568 173.568-173.568 173.568 77.824 173.568 173.568-77.568 173.568-173.568 173.568v0zM929.792 673.28l-133.376-133.376c-7.424-7.424-19.456-7.424-26.88 0 0 0 0 0 0 0l-59.904 59.904c-7.424 7.424-7.424 19.456 0 26.88s19.456 7.424 26.88 0v0l46.592-46.592 120.064 120.064c7.424 7.424 19.456 7.424 26.88 0 7.168-7.424 7.168-19.456-0.256-26.88v0 0z" />
<glyph unicode="&#xe923;" glyph-name="rp-icon-mastercard-transfer" d="M365.535 236.396h-69.632c-12.032-0.256-21.76-10.24-21.504-22.528 0.256-11.776 9.728-21.248 21.504-21.504h69.376c12.032-0.256 22.272 9.472 22.528 21.504s-9.472 22.272-21.504 22.528c-0.256 0-0.512 0-0.768 0zM629.471 236.396h-189.952c-12.032 0.256-22.272-9.472-22.528-21.504s9.472-22.272 21.504-22.528c0.256 0 0.512 0 1.024 0h189.952c12.032-0.256 22.272 9.472 22.528 21.504s-9.472 22.272-21.504 22.528c-0.256 0-0.512 0-1.024 0v0zM913.306 682.496h-490.752c3.584-14.336 5.888-29.184 6.912-44.032h483.84c26.624 0 48.128-21.504 48.128-48.128v-28.16h-539.904c-10.496-38.656-30.976-73.984-59.136-102.4h599.040v-273.408c0-26.624-21.504-48.128-48.128-48.128h-653.824c-26.624 0-48.128 21.504-48.128 48.128v204.8c-5.12-0.256-9.984-0.768-15.36-0.768-9.728 0-19.2 0.768-28.672 2.048v-205.824c0-50.944 41.216-92.16 92.16-92.16h653.824c50.944 0 91.904 41.216 92.16 92.16v403.712c0 50.688-41.216 91.904-92.16 92.16zM196.25 802.048c-98.304 0-177.664-79.616-177.664-177.664s79.616-177.664 177.664-177.664c98.304 0 177.664 79.616 177.664 177.664s-79.36 177.664-177.664 177.664v0zM289.178 550.656c0-2.56-0.512-5.12-1.536-7.424-0.768-2.048-2.048-3.584-3.584-5.376-0.256-0.256-0.512-0.768-0.768-1.024s-0.512-0.256-0.768-0.512c-1.536-1.536-3.328-2.816-5.376-3.584-2.304-1.024-4.864-1.536-7.424-1.536h-136.704c-10.752 0-19.456 8.704-19.456 19.456s8.704 19.456 19.456 19.456h89.856l-113.664 113.664c-7.424 7.68-7.168 19.968 0.512 27.392 7.424 7.424 19.456 7.168 27.136 0l113.664-113.664v89.856c0 10.752 8.704 19.456 19.456 19.456s19.456-8.704 19.456-19.456c0 0 0 0 0 0v-136.704z" />
<glyph unicode="&#xe924;" glyph-name="rp-icon-menu-more" d="M732.585 367.834c-44.288 0-80.128 35.84-80.128 80.128s35.84 80.128 80.128 80.128c44.288 0 80.128-35.84 80.128-80.128s-35.84-80.128-80.128-80.128zM511.913 367.834c-44.288 0-80.128 35.84-80.128 80.128s35.84 80.128 80.128 80.128 80.128-35.84 80.128-80.128c0.256-44.288-35.84-80.128-80.128-80.128zM291.497 367.834c-44.288 0-80.128 35.84-80.128 80.128s35.84 80.128 80.128 80.128c44.288 0 80.128-35.84 80.128-80.128s-35.84-80.128-80.128-80.128zM913.065 929.242h-802.048c-44.288 0-80.128-35.84-80.128-80.128v-802.048c0-44.288 35.84-80.128 80.128-80.128h802.048c44.288 0 80.128 35.84 80.128 80.128v802.048c0 44.288-35.84 80.128-80.128 80.128z" />
<glyph unicode="&#xe925;" glyph-name="rp-icon-news" d="M977.92 693.248h-183.552v216.32c0 13.824-11.008 24.832-24.832 24.832v0h-723.456c-13.824 0-24.832-11.008-24.832-24.832 0 0 0 0 0 0v-818.944c0-71.168 57.856-129.024 129.024-129.024h723.456c71.168 0 129.024 57.856 129.024 129.024v577.792c0 13.824-11.008 24.832-24.832 24.832 0 0 0 0 0 0zM70.912 90.624v794.368h673.792v-794.368c0-28.672 9.728-56.832 27.392-79.36h-621.824c-43.776 0-79.36 35.584-79.36 79.36v0zM953.088 90.624c0-43.776-35.584-79.36-79.36-79.36s-79.36 35.584-79.36 79.36v552.96h158.72v-552.96zM618.496 188.672h-440.832c-13.824 0-24.832-11.008-24.832-24.832 0 0 0 0 0 0 0-13.824 11.008-24.832 24.832-24.832v0h440.832c13.824 0 24.832 11.008 24.832 24.832 0 0 0 0 0 0 0 13.824-11.008 24.832-24.832 24.832v0zM618.496 329.984h-440.832c-13.824 0-24.832-11.008-24.832-24.832 0 0 0 0 0 0 0-13.824 11.008-24.832 24.832-24.832v0h440.832c13.824 0 24.832 11.008 24.832 24.832 0 0 0 0 0 0 0 13.824-11.008 24.832-24.832 24.832v0zM618.496 471.296h-440.832c-13.824 0-24.832-11.008-24.832-24.832 0 0 0 0 0 0 0-13.824 11.008-24.832 24.832-24.832v0h440.832c13.824 0 24.832 11.008 24.832 24.832 0 0 0 0 0 0 0 13.824-11.008 24.832-24.832 24.832v0zM618.496 612.608h-440.832c-13.824 0-24.832-11.008-24.832-24.832 0 0 0 0 0 0 0-13.824 11.008-24.832 24.832-24.832v0h440.832c13.824 0 24.832 11.008 24.832 24.832 0 0 0 0 0 0 0 13.824-11.008 24.832-24.832 24.832v0zM618.496 753.92h-440.832c-13.824 0-24.832-11.008-24.832-24.832 0 0 0 0 0 0 0-13.824 11.008-24.832 24.832-24.832v0h440.832c13.824 0 24.832 11.008 24.832 24.832 0 0 0 0 0 0 0 13.568-11.008 24.832-24.832 24.832v0z" />
<glyph unicode="&#xe926;" glyph-name="rp-icon-plus-bold" d="M364.859 57.211c1.28-33.536 29.44-59.904 63.232-58.624h168.192c33.536-1.28 61.952 25.088 63.232 58.624v243.968c0.256 5.632 4.864 9.984 10.496 9.728 0 0 0 0 0 0h262.912c33.536-1.28 61.952 25.088 63.232 58.624v156.416c-1.28 33.536-29.44 59.904-63.232 58.624h-263.424c-5.632-0.256-10.24 4.096-10.496 9.728 0 0 0 0 0 0v243.968c-1.28 33.536-29.44 59.904-63.232 58.624h-168.192c-33.536 1.28-61.952-25.088-63.232-58.624v-243.968c-0.256-5.632-4.864-9.984-10.496-9.728 0 0 0 0 0 0h-262.656c-33.536 1.28-61.696-25.088-62.976-58.624v-156.416c1.28-33.536 29.44-59.904 62.976-58.624h263.168c5.632 0.256 10.24-4.096 10.496-9.728v0-243.968z" />
<glyph unicode="&#xe927;" glyph-name="rp-icon-reward-approved" d="M383.232 127.744l-115.968-57.344 67.072 245.504c4.352 16.128-0.256 33.28-12.032 45.056l-183.296 181.504 218.88 21.76c15.872 1.536 29.696 11.008 36.864 25.344l117.248 231.424 116.736-231.68c7.168-14.080 20.992-23.552 36.864-25.344l221.952-22.016c-8.704-17.408-5.888-38.912 8.448-53.248 17.92-18.176 47.36-18.432 65.536-0.256l9.984 9.728c30.976 29.184 32.512 78.080 3.328 109.312-13.568 14.592-32 23.040-49.92 24.064l-225.024 22.272-118.528 235.008c-9.472 18.688-25.6 32.512-45.568 38.912-19.968 6.656-41.216 4.608-59.648-4.864-14.848-7.424-26.368-19.2-34.048-34.048l-118.528-234.752-224.256-22.272c-42.752-3.584-74.496-41.216-70.912-84.224 1.536-18.176 9.728-35.328 22.784-48.384l186.88-185.088-69.12-251.648c-5.376-20.224-2.56-41.216 7.936-59.136s27.392-30.976 47.616-36.096c6.656-1.792 13.312-2.56 19.968-2.56 12.032 0 23.808 2.816 34.816 8.192l145.152 71.936c23.040 11.264 32.256 39.168 20.992 62.208-11.52 22.784-39.168 32-62.208 20.736zM716.032 523.776c-154.112 0-279.552-125.44-279.552-279.552s125.44-279.552 279.552-279.552c154.112 0 279.552 125.44 279.552 279.552s-125.44 279.552-279.552 279.552zM856.832 283.904l-112.896-150.528c-12.032-16.128-29.696-26.624-49.664-29.44-3.584-0.512-7.168-0.768-10.752-0.768-16.128 0-32 5.12-45.312 15.104-1.792 1.28-6.4 5.376-7.936 6.912l-58.368 58.368c-18.176 18.176-18.176 47.36 0 65.536s47.36 18.176 65.536 0l44.288-44.288 101.12 134.656c15.36 20.48 44.544 24.576 65.024 9.216 20.224-15.104 24.32-44.288 8.96-64.768z" />
<glyph unicode="&#xe928;" glyph-name="rp-icon-rewards-gift" d="M944.896 754.432h-200.704c1.536 1.28 3.072 2.304 4.352 3.84 16.896 15.616 26.368 37.376 26.368 60.16 1.536 59.392-43.264 109.568-102.4 114.432h-2.304c-79.616 0-111.872-63.232-149.504-136.448l-6.912-13.312c-2.304 4.352-4.864 9.216-6.912 13.568-37.632 73.216-70.144 136.448-149.504 136.448h-2.304c-59.136-4.864-104.192-55.296-102.4-114.432 0-22.784 9.472-44.8 26.368-60.416 1.28-1.28 3.072-2.56 4.352-3.84h-204.288c-14.080 0-25.344-11.264-25.344-25.344v-221.952c0-14.080 11.264-25.344 25.344-25.344h3.84v-493.824c0-14.080 11.264-25.344 25.344-25.344 0 0 0 0 0 0h807.168c14.080 0 25.344 11.264 25.344 25.344 0 0 0 0 0 0v494.080h3.84c14.080 0 25.344 11.264 25.344 25.344 0 0 0 0 0 0v221.696c0 14.080-11.264 25.344-25.088 25.344v0zM446.464 704h27.136c7.936-0.256 15.104-0.256 21.248-0.256 8.96 0 15.36 0 18.688 0.256s9.728-0.256 18.688-0.256c6.144 0 13.312 0 21.248 0.256h26.88v-690.432h-134.144l0.256 690.432zM919.552 532.48h-288.512v171.52h288.512v-171.52zM565.504 773.632c37.376 72.704 57.344 108.288 103.168 108.8 32.768-2.816 57.6-31.232 55.808-64.256 0-9.216-4.096-17.92-11.008-23.808-29.952-28.672-104.96-37.888-157.696-40.192 3.328 6.912 6.656 13.312 9.728 19.456v0zM358.4 882.432c45.568-0.768 65.536-36.096 103.168-108.8l9.728-19.2c-52.736 2.048-128 11.264-157.696 40.192-6.912 5.888-10.752 14.592-11.008 23.808-1.536 33.024 23.040 61.184 55.808 64zM104.448 704h291.328v-171.52h-291.328v171.52zM133.376 481.28h262.144v-467.968h-262.144v467.968zM890.368 13.312h-259.584v467.968h259.328v-467.968z" />
<glyph unicode="&#xe929;" glyph-name="rp-icon-visibility-hide" d="M732.928 756.992c0-2.56-0.256-4.096-0.512-4.864-37.888-67.84-94.72-169.216-169.984-304.64s-131.584-236.8-169.216-304.128l-26.368-47.872c-3.584-5.632-8.704-8.704-15.104-8.704-4.352 0-28.416 12.544-71.936 37.632-5.632 3.584-8.704 8.704-8.704 15.104 0 4.352 7.936 19.968 23.552 46.848-51.2 23.296-98.56 54.272-141.568 92.928-43.264 38.656-80.64 82.688-112.128 131.584-7.168 11.008-10.752 23.552-10.752 37.12s3.584 26.112 10.752 37.12c54.784 84.224 122.88 150.784 204.288 199.424s170.24 73.216 266.496 73.216c32 0 64-3.072 96.768-9.216l28.928 52.224c3.584 5.632 8.704 8.704 15.104 8.704 1.792 0 5.12-1.024 9.728-3.328 4.608-2.048 10.24-4.864 16.64-8.192s12.288-6.656 17.664-9.984c5.376-3.328 11.008-6.656 16.896-9.984s9.472-5.376 10.496-6.144c6.144-3.84 8.96-8.704 8.96-14.848zM328.704 246.528l41.984 75.776c-31.232 22.528-55.552 50.944-73.216 85.504-17.664 34.304-26.368 70.656-26.368 109.056 0 43.264 11.008 83.712 32.768 120.832-81.92-41.984-150.272-105.216-204.8-189.696 59.904-92.416 136.448-159.744 229.632-201.472zM530.176 636.16c5.12 5.12 7.424 11.008 7.424 18.176s-2.56 13.312-7.424 18.176-11.008 7.424-18.176 7.424c-44.8 0-83.2-16.128-115.2-48.128s-48.128-70.4-48.128-115.2c0-7.168 2.56-13.312 7.424-18.176 5.12-5.12 11.008-7.424 18.176-7.424s13.312 2.56 18.176 7.424c5.12 4.864 7.424 11.008 7.424 18.176 0 30.72 11.008 57.088 32.768 79.104 21.76 21.76 48.128 32.768 79.104 32.768 7.424 0 13.568 2.56 18.432 7.68zM993.536 448c0-12.544-3.584-24.832-10.752-37.12-14.080-23.040-33.536-48.896-58.624-77.824-53.76-61.696-115.968-109.568-186.88-143.616-70.656-34.048-145.92-50.944-225.536-50.944l39.68 70.912c76.032 6.4 146.176 30.976 210.944 73.728s118.784 97.536 162.048 165.12c-41.216 64.256-91.648 116.736-151.552 157.952l33.792 60.16c34.048-23.040 66.816-50.432 98.048-82.176s57.344-64.768 77.568-98.816c7.68-12.544 11.264-24.832 11.264-37.376zM752.896 516.864c0-49.92-14.080-95.232-42.496-136.192s-65.792-70.4-112.384-88.32l150.528 269.824c2.816-16.384 4.352-31.488 4.352-45.312z" />
<glyph unicode="&#xe92a;" glyph-name="rp-icon-visibility-show" d="M1000.852 448.036c-0.256-13.312-4.096-26.368-11.008-37.632-50.432-83.2-121.088-152.32-205.568-201.216-167.68-100.864-377.6-100.864-545.024 0.256-84.224 48.64-154.88 117.76-205.568 200.96-14.336 23.040-14.336 52.224 0 75.264 50.688 82.944 121.344 152.064 205.568 200.704 167.68 101.12 377.344 101.12 545.024 0 84.224-48.64 154.88-117.76 205.568-200.704 6.912-11.264 10.752-24.32 11.008-37.632zM931.22 448.036c-50.688 81.664-122.624 148.224-207.872 192.512 22.016-37.12 33.536-79.616 33.28-122.88 0-134.912-109.568-244.48-244.736-244.224-134.912 0-244.224 109.312-244.224 244.224-0.256 43.264 11.264 85.504 33.28 122.88-85.248-44.288-157.184-110.848-207.872-192.512 46.336-72.448 108.544-133.376 182.016-178.176 145.664-88.32 328.448-88.32 474.112 0 73.472 44.8 135.68 105.728 182.016 178.176zM530.58 639.012c4.864 4.864 7.68 11.52 7.68 18.432 0 14.336-11.52 26.112-25.856 26.112 0 0-0.256 0-0.256 0-91.392-0.512-165.632-74.496-165.888-165.888-0.512-14.336 10.752-26.624 25.088-27.136s26.624 10.752 27.136 25.088c0 0.768 0 1.28 0 2.048 0 62.72 50.944 113.664 113.664 113.664v0c6.912-0.256 13.568 2.56 18.432 7.68v0z" />
<glyph unicode="&#xe92b;" glyph-name="rp-check" d="M1001.984 738.048l-122.624 123.136c-4.096 4.096-9.728 6.4-15.616 6.4s-11.52-2.304-15.616-6.4l-518.144-518.656c-4.096-4.096-9.728-6.4-15.616-6.4s-11.52 2.304-15.616 6.4l-122.624 123.136c-4.096 4.096-9.728 6.4-15.616 6.4s-11.52-2.304-15.616-6.4l-122.624-123.136c-8.704-8.704-8.704-22.528 0-30.976l276.48-276.48c4.096-4.096 9.728-6.4 15.616-6.4s11.52 2.304 15.616 6.4l672 672.256c8.192 8.448 8.192 22.272 0 30.72z" />
<glyph unicode="&#xe92c;" glyph-name="rp-icon-touch-id-init" d="M171.776 539.392c16.896 0 30.72 13.824 30.72 30.72 0 118.784 69.376 228.096 176.896 278.784s236.032 34.56 327.424-40.96c13.056-10.752 32.512-8.96 43.264 4.096s8.96 32.512-4.096 43.264c-110.080 90.624-264.192 110.080-392.96 49.152-129.024-60.672-212.224-192-212.224-334.592 0.256-16.64 14.080-30.464 30.976-30.464zM855.552 704.768c-6.144 15.872-24.064 23.552-39.936 17.408s-23.808-24.064-17.408-39.936c14.080-35.84 20.992-73.472 20.992-112.128v-246.528c0-169.984-138.24-308.224-308.224-308.224-18.688 0-37.632 1.792-56.064 5.12-16.896 3.072-32.768-7.936-35.84-24.832-3.072-16.64 7.936-32.768 24.832-35.84 22.016-4.096 44.8-6.144 67.328-6.144 203.776 0 369.92 165.888 369.92 369.92v246.528c-0.512 46.336-8.96 91.648-25.6 134.656zM202.752 323.84v92.416c0 16.896-13.824 30.72-30.72 30.72s-30.72-13.824-30.72-30.72v-92.416c0-110.848 48.896-214.784 134.4-285.44 5.632-4.608 12.8-6.912 19.456-6.912 8.96 0 17.664 3.84 23.808 11.264 10.752 13.056 8.96 32.512-4.096 43.264-71.424 58.624-112.128 145.408-112.128 237.824zM665.088 292.864c16.896 0 30.72 13.824 30.72 30.72v246.528c0 70.4-39.168 133.888-102.144 165.376s-137.216 24.832-193.536-17.408c-13.568-10.24-16.384-29.44-6.144-43.264 10.24-13.568 29.696-16.384 43.264-6.144 37.632 28.16 87.040 32.512 129.024 11.52s68.096-63.232 68.096-110.336v-246.528c-0.256-16.64 13.568-30.464 30.72-30.464zM584.96 154.112c15.616 6.656 22.784 24.832 15.872 40.448s-25.088 22.784-40.448 15.872c-38.4-16.64-81.92-12.8-116.736 9.984s-55.808 61.44-55.808 103.168v246.528c0 16.896-13.824 30.72-30.72 30.72s-30.72-13.824-30.72-30.72v-246.528c0-62.464 31.232-120.32 83.712-154.624 30.72-19.968 65.792-30.208 101.376-30.208 24.576 0 49.664 5.12 73.472 15.36zM480 539.392v-184.832c0-16.896 13.824-30.72 30.72-30.72s30.72 13.824 30.72 30.72v184.832c0 16.896-13.824 30.72-30.72 30.72s-30.72-13.568-30.72-30.72z" />
<glyph unicode="&#xe92d;" glyph-name="rp-icon-locked" d="M336.64 664.576c0 96.768 78.592 175.36 175.36 175.36s175.36-78.592 175.36-175.36v-92.928c0-11.52-9.216-20.736-20.736-20.736h-309.248c-11.52 0-20.736 9.216-20.736 20.736v92.928zM429.568 303.616c-0.256 40.192 28.416 74.496 67.84 81.664s78.336-15.104 92.16-52.736c13.824-37.632-1.536-79.872-36.352-99.84v-93.952c0-22.784-18.432-41.216-41.216-41.216s-41.216 18.432-41.216 41.216v93.952c-25.6 14.592-41.216 41.472-41.216 70.912zM821.504 551.168h-30.976v113.408c0 153.856-124.672 278.528-278.528 278.528s-278.528-124.672-278.528-278.528v-113.408h-30.976c-45.568 0-82.432-36.864-82.432-82.432v-433.152c0-45.568 36.864-82.432 82.432-82.432h618.752c45.568 0 82.432 36.864 82.432 82.432v433.152c0.256 45.568-36.608 82.432-82.176 82.432z" />
<glyph unicode="&#xe92e;" glyph-name="rp-icon-top-offers" d="M997.376 656.077l-145.408 193.946c-9.626 12.698-22.323 22.733-36.864 29.491-0.205 0-0.41 0.205-0.614 0.41s-0.614 0-0.819 0c-12.493 5.939-26.419 9.216-40.346 9.421h-522.854c-13.926-0.205-27.648-3.277-40.141-9.011-0.205 0-0.614 0-0.819 0s-0.41-0.41-0.819-0.614c-14.541-6.758-27.034-16.794-36.659-29.491l-145.408-193.946c-13.107-17.408-20.070-38.912-19.661-60.826v-0.41c0.614-22.118 8.602-43.418 22.733-60.416l407.142-492.544c18.227-21.709 44.851-34.406 72.909-34.816 0.819 0 1.434-0.41 2.253-0.41 0.614 0 1.843 0.205 2.662 0.41 28.058 0.614 54.477 13.312 72.704 35.021l406.938 492.339c29.082 34.611 30.515 85.197 3.072 121.446zM936.96 627.814h-178.381l57.958 160.768 120.422-160.768zM512 136.090l-153.6 426.394h306.995l-153.395-426.394zM577.331 823.808h182.272l-59.187-164.045-123.085 164.045zM642.867 627.814h-261.734l130.867 174.285 130.867-174.285zM323.584 659.763l-59.187 164.25h182.272l-123.085-164.25zM207.667 788.582l57.958-160.768h-178.586l120.627 160.768zM91.546 562.483h197.427l152.576-423.731-350.003 423.731zM582.656 139.366l152.371 423.117h197.427l-349.798-423.117z" />
<glyph unicode="&#xe92f;" glyph-name="rp-icon-ballots" d="M683.008 135.475c24.576 51.61 73.318 160.973 48.742 277.709 0 0-14.541 68.608-20.685 97.894l-43.622 207.053 54.272 138.65c12.493 33.792-4.71 71.475-38.502 84.173l-4.71 1.843c-16.179 6.144-34.202 5.325-49.971-1.843s-28.058-20.275-34.202-36.659l-0.41-0.819c-10.65 3.482-21.914 4.096-32.768 1.843l-4.915-1.024c-35.43-7.578-57.958-42.189-50.586-77.619l21.504-102.4-29.901-80.282c-12.493 12.083-29.286 18.842-46.694 18.842-30.106-0.205-56.32-19.866-64.922-48.742-9.83 5.53-20.89 8.397-32.154 8.397-37.478 0-67.994-30.515-67.994-67.994v-156.058c0.205-28.058 1.434-105.267 8.602-148.48 7.782-45.67 22.733-71.27 49.766-117.555l0.205-0.41c-14.746-6.963-24.166-21.914-24.166-38.298v-102.4c0-23.552 19.046-42.598 42.598-42.598h311.296c23.552 0 42.598 19.046 42.598 42.598v102.4c-0.205 20.070-13.926 37.274-33.382 41.779zM630.784 890.778c5.12 13.517 20.275 20.48 33.997 15.565l4.71-1.843c13.517-5.12 20.48-20.070 15.565-33.587l-32.358-82.944-14.131 66.765c-2.048 9.216-5.939 18.022-11.674 25.6l3.891 10.445zM547.635 854.733c3.891 5.939 9.83 10.035 16.589 11.469l4.915 1.024c14.336 3.072 28.262-6.144 31.334-20.48l56.115-266.854c-16.179 8.806-40.346 19.251-65.331 29.696l-47.309 225.28c-1.638 6.758-0.205 13.926 3.686 19.866zM547.635 627.2c-4.506 1.434-9.216 2.253-13.926 2.662l8.602 22.938 5.325-25.6zM421.478 594.842c0 15.974 12.902 28.877 28.877 28.877s28.877-12.902 28.877-28.877v-155.648c0-15.974-12.902-28.877-28.877-28.877s-28.877 12.902-28.877 28.877v155.648zM324.403 554.701c0 15.974 12.902 28.877 28.877 28.877s28.877-12.902 28.877-28.877v-155.648c0-15.974-12.902-28.877-28.877-28.877-15.77 0-28.672 12.698-28.877 28.467 0 6.554 0 10.445 0 10.65v145.408zM332.595 256.512c-3.686 26.624-5.939 53.453-6.554 80.282 8.602-3.891 18.022-5.939 27.443-5.939 30.106 0 56.525 19.866 64.922 48.742 9.83-5.53 20.89-8.397 32.154-8.397 37.478 0 67.994 30.515 67.994 67.994v67.174c2.048-1.434 3.891-3.072 5.939-4.301 29.082-16.998 47.514-27.034 57.139-31.949l14.336-54.682c-28.672-8.806-75.776-35.84-102.4-118.17-3.277-10.24 2.253-21.299 12.698-24.576 0 0 0 0 0 0 10.24-3.277 21.299 2.253 24.576 12.493 0 0 0 0 0 0 29.696 92.57 87.040 95.232 89.293 95.437h25.395l-30.515 116.531-8.192 3.891c-0.205 0-19.251 9.421-62.669 34.611-22.528 13.107-27.648 41.779-22.938 52.429 0.819 1.434 6.554 5.53 19.456 0 7.168-3.072 15.36-6.349 23.757-10.035 28.877-12.083 68.608-28.672 81.101-37.274 22.528-15.36 22.938-17.613 25.19-27.853l14.541-69.427c0-0.205 0.205-0.41 0.205-0.614 4.506-20.89 8.192-38.093 8.192-38.093 22.938-108.954-27.443-214.426-48.947-259.482-1.638-3.482-3.072-6.349-4.301-9.216h-253.542l-9.216 15.974c-26.419 45.261-38.502 65.946-45.056 104.448v0zM677.069-8.499c0-1.843-1.638-3.482-3.482-3.482h-311.091c-1.843 0-3.482 1.638-3.482 3.482v102.4c0 1.843 1.638 3.482 3.482 3.482h311.296c1.843 0 3.482-1.638 3.482-3.482l-0.205-102.4z" />
<glyph unicode="&#xe930;" glyph-name="rc-icon-mortarboard" horiz-adv-x="1552" d="M1517.181 701.675l-724.217 255.391c-5.101 1.861-10.991 2.938-17.131 2.938s-12.030-1.076-17.489-3.051l0.358 0.113-724.162-255.391c-0.498 0-0.941-0.609-1.494-0.72-1.937-0.83-3.487-1.937-5.535-2.878-3.872-2.027-7.213-4.307-10.255-6.923l0.071 0.059c-1.605-1.55-3.044-3.1-4.483-4.816-2.52-2.879-4.731-6.133-6.518-9.639l-0.124-0.268c-0.971-1.558-1.917-3.377-2.722-5.27l-0.1-0.266c-1.749-4.624-2.883-9.971-3.15-15.544l-0.005-0.12c0-0.72-0.443-1.384-0.443-2.214v-359.452c0-28.552 23.146-51.698 51.698-51.698s51.698 23.146 51.698 51.698v0 289.211l218.693-68.027v-411.039c0-0.043 0-0.094 0-0.145 0-23.445 15.606-43.245 36.997-49.578l0.366-0.093 402.294-116.238c4.287-1.264 9.213-1.991 14.308-1.991s10.021 0.727 14.679 2.083l-0.37-0.092 402.294 116.238c21.756 6.426 37.362 26.226 37.362 49.671 0 0.051 0 0.102 0 0.153v-0.008 411.039l285.502 88.839c21.232 6.711 36.354 26.233 36.354 49.287 0 22.378-14.248 41.427-34.167 48.572l-0.36 0.113zM1126.455 142.571l-350.595-101.404-350.651 101.459v340.079l335.318-104.337c4.588-1.539 9.87-2.427 15.36-2.427s10.772 0.888 15.712 2.528l-0.352-0.101 335.318 104.337zM775.86 481.764l-559.99 174.301 560.156 197.549 560.156-197.549z" />
<glyph unicode="&#xe931;" glyph-name="rc-icon-spyglass" d="M1013.899-3.058l-273.594 273.642c58.579 70.36 94.135 161.686 94.135 261.317 0 226.311-183.461 409.772-409.772 409.772s-409.772-183.461-409.772-409.772c0-226.311 183.461-409.772 409.772-409.772 101.534 0 194.443 36.928 266.028 98.086l-0.565-0.471 273.26-273.308c6.364-5.943 14.937-9.591 24.362-9.591 19.736 0 35.736 16 35.736 35.736 0 9.425-3.649 17.998-9.61 24.383l0.019-0.021zM555.717 220.029c-40.397-17.716-87.482-28.027-136.975-28.027-192.601 0-348.735 156.134-348.735 348.735s156.134 348.735 348.735 348.735c192.601 0 348.735-156.134 348.735-348.735 0-95.792-38.622-182.562-101.144-245.59l0.023 0.023s-0.476-0.238-0.667-0.476l-0.334-0.476c-30.626-30.763-66.99-55.783-107.356-73.323l-2.234-0.865z" />
<glyph unicode="&#xe932;" glyph-name="rp-icon-pencil" d="M969.8 905.373v0c-33.582 33.75-80.065 54.637-131.427 54.637-0.667 0-1.333-0.004-1.998-0.011l0.101 0.001c-51.807-0.444-98.547-21.776-132.279-55.972l-17.092-17.092s-0.512-0.256-0.726-0.469c-0.156-0.208-0.311-0.445-0.451-0.691l-0.018-0.034-87.787-87.915-0.64-0.469-0.341-0.555-509.951-510.165c-2.713-2.709-4.938-5.904-6.534-9.445l-0.081-0.201c-0.229-0.803-0.437-1.8-0.582-2.817l-0.015-0.128c0-0.597-0.768-0.982-0.939-1.622l-78.014-296.309c-0.69-2.483-1.086-5.335-1.086-8.279 0-17.716 14.355-32.080 32.069-32.093h0.001c0.018 0 0.038 0 0.059 0 2.863 0 5.636 0.389 8.267 1.118l-0.217-0.051 296.309 77.63c0.939 0.256 1.579 1.11 2.475 1.451 0.845 0.113 1.582 0.262 2.301 0.455l-0.125-0.029c2.641 1.342 4.915 2.934 6.934 4.799l-0.021-0.019c0.896 0.726 2.134 0.896 2.945 1.664l617.072 617.157c34.725 33.949 56.257 81.267 56.257 133.614 0 51.46-20.809 98.060-54.47 131.845l0.006-0.006zM838.908 601.51l-173.142 173.142 43.915 43.872 173.355-173.27zM339.328 101.887l-38.41 89.622 428.566 428.694 64.016-64.016zM620.272 729.542l64.016-64.016-428.779-428.694-89.622 38.41zM131.275 220.316l107.248-45.835 45.963-107.248-207.668-54.414zM927.635 691.133l-172.459 172.416c21.509 19.728 50.167 31.969 81.676 32.434l0.094 0.001h0.896c0.090 0 0.198 0 0.305 0 67.434 0 122.1-54.666 122.1-122.1 0-0.42-0.002-0.84-0.006-1.26l0.001 0.064c-0.53-31.554-12.828-60.137-32.682-81.64l0.076 0.084z" />
<glyph unicode="&#xe933;" glyph-name="rc-icon-pencil" d="M864 960c88.364 0 160-71.634 160-160 0-36.020-11.91-69.258-32-96l-64-64-224 224 64 64c26.742 20.090 59.978 32 96 32zM64 224l-64-288 288 64 592 592-224 224-592-592zM715.578 596.422l-448-448-55.156 55.156 448 448 55.156-55.156z" />
<glyph unicode="&#xe934;" glyph-name="rc-icon-accreditation-failed" d="M512 960c-282.77 0-512-229.23-512-512s229.23-512 512-512c282.77 0 512 229.23 512 512v0c-0.324 282.64-229.361 511.677-511.969 512h-0.031zM512 0c-247.424 0-448 200.576-448 448s200.576 448 448 448c247.424 0 448-200.576 448-448v0c-0.281-247.311-200.69-447.72-447.973-448h-0.027zM810.667 606.164c-3.158 1.141-6.803 1.801-10.602 1.801-13.857 0-25.663-8.779-30.161-21.078l-0.071-0.223c-9.025-25.115-32.636-42.752-60.365-42.752s-51.34 17.637-60.225 42.306l-0.14 0.446c-4.632 12.329-16.324 20.944-30.027 20.944-17.671 0-31.997-14.325-31.997-31.997 0-3.68 0.621-7.214 1.764-10.505l-0.068 0.225c18.083-50.165 65.27-85.382 120.683-85.382s102.601 35.217 120.402 84.491l0.281 0.891c1.167 3.184 1.843 6.86 1.843 10.694 0 13.844-8.805 25.632-21.12 30.070l-0.223 0.070zM314.494 479.959c55.386 0.063 102.537 35.252 120.379 84.485l0.283 0.892c1.16 3.176 1.83 6.843 1.83 10.667 0 17.672-14.326 31.997-31.997 31.997-13.848 0-25.641-8.797-30.096-21.108l-0.070-0.223c-9.030-25.088-32.623-42.704-60.331-42.704s-51.3 17.616-60.19 42.258l-0.14 0.446c-4.632 12.329-16.324 20.944-30.027 20.944-17.671 0-31.997-14.325-31.997-31.997 0-3.68 0.621-7.214 1.764-10.505l-0.068 0.225c18.124-50.126 65.275-85.315 120.654-85.378h0.008zM511.975 368.172c-0.338 0.001-0.739 0.002-1.14 0.002-124.69 0-232.633-71.701-284.847-176.122l-0.833-1.841c-2.102-4.147-3.334-9.041-3.334-14.222 0-17.676 14.329-32.006 32.006-32.006 12.495 0 23.317 7.16 28.588 17.6l0.084 0.183c42.843 85.055 129.468 142.381 229.483 142.381s186.641-57.326 228.812-140.913l0.671-1.467c5.355-10.624 16.177-17.783 28.672-17.783 17.676 0 32.006 14.329 32.006 32.006 0 5.182-1.231 10.076-3.417 14.405l0.084-0.183c-53.043 106.261-160.982 177.963-285.669 177.963-0.41 0-0.819-0.001-1.228-0.002h0.063z" />
<glyph unicode="&#xe935;" glyph-name="rc-icon-accreditation-passed" d="M591.478 540.581l17.008-17.37-27.285-18.038-40.51 16.995-0.022 0.913 15.597 19.109c-13.033 12.767-27.477 25.245-40.947 38.501l-0.913-0.022c-13.273-13.391-27.586-26.044-40.445-38.947l15.815-18.925v-0.673l-40.104-17.348-26.643 17.615 16.339 17.471-0.022 1.258c-18.344 11.225-31.535 22.188-47.66 32.509l7.687-77.613h232.246l6.779 78.924c-16.099-10.517-29.202-21.616-47.804-33.085l0.874-1.236zM404.424 456.198l85.349 0.262 0.515-89.585-41.886-0.044c-9.329-0.044-19.218 9.312-17.257 15.51 2.184 9.024 10.578 15.047 18.344 19.589-1.551 0-30.377 20.144-43.869 28.827 0.625-5.582 10.71-78.452 10.814-79.623l99.434-35.54h1.031l99.426 36.824c0.066 1.175 9.281 74.53 9.867 80.138-13.457-8.862-42.148-29.469-43.729-29.469 7.862-4.477 16.357-10.456 18.672-19.475 2.057-6.224-7.744-15.776-17.161-15.842l-42.021-0.489-0.585 88.926 86.362 0.952 2.206 26.464-227.992-1.271zM220.703 304.146l1.144 0.494c5.085 1.686 8.689 6.399 8.689 11.953 0 2.108-0.519 4.095-1.437 5.84l0.033-0.069-6.713 15.628-24.896-10.692c0.92-5.778 2.552-10.97 4.828-15.799l-0.15 0.355c1.726-5.356 6.667-9.164 12.497-9.164 2.195 0 4.264 0.54 6.081 1.493l-0.072-0.034zM397.209 112.655l3.289 38.58-23.288-30.884c5.731-3.65 12.454-6.338 19.659-7.645l0.341-0.051zM178.166 579.939l-1.179 0.402c-1.509 0.693-3.274 1.097-5.133 1.097-5.804 0-10.689-3.937-12.13-9.285l-0.020-0.088-5.49-16.099 25.651-8.735c2.788 4.199 5.124 9.036 6.762 14.185l0.113 0.412c0.749 1.599 1.186 3.472 1.186 5.448 0 6.048-4.098 11.139-9.668 12.648l-0.092 0.021zM252.023 252.787l-26.232-21.642c-3.844-3.040-6.288-7.703-6.288-12.937 0-9.087 7.366-16.453 16.453-16.453 4.128 0 7.901 1.52 10.79 4.031l-0.020-0.017 26.232 21.637c3.891 3.039 6.37 7.732 6.37 13.003 0 9.089-7.368 16.457-16.457 16.457-4.164 0-7.966-1.546-10.865-4.096l0.018 0.016zM812.666 652.87l0.991 0.751c3.585 2.253 5.933 6.186 5.933 10.668 0 3.181-1.182 6.085-3.132 8.298l0.012-0.014-10.26 13.54-21.598-16.357c2.254-5.298 5.022-9.869 8.337-13.979l-0.087 0.111c2.342-3.786 6.471-6.271 11.181-6.271 3.311 0 6.335 1.228 8.641 3.253l-0.015-0.013zM395.824 759.188l-24.324 30.137 4.564-38.409c7.494 1.584 14.119 4.466 19.955 8.424l-0.195-0.125zM213.085 647.179l27.516-20.017c2.746-2.128 6.239-3.411 10.032-3.411 9.089 0 16.457 7.368 16.457 16.457 0 5.601-2.798 10.549-7.073 13.522l-0.054 0.036-27.516 20.013c-2.761 2.168-6.287 3.477-10.118 3.477-9.092 0-16.462-7.37-16.462-16.462 0-5.639 2.835-10.616 7.158-13.582l0.056-0.036zM777.174 252.293l-0.957 0.795c-2.271 2.262-5.404 3.66-8.863 3.66-4.205 0-7.927-2.066-10.207-5.238l-0.026-0.037-10.836-13.103 20.882-17.265c4.424 3.242 8.244 6.939 11.51 11.091l0.095 0.125c2.4 2.376 3.886 5.671 3.886 9.313 0 4.378-2.147 8.254-5.446 10.634l-0.039 0.027zM879.338 309.056l-6.901 1.446c1.366-3.329 2.159-7.194 2.159-11.243 0-4.315-0.9-8.419-2.523-12.136l0.076 0.196c-7.608-17.798-20.423-21.039-38.475-13.321l-63.056 26.957 7.39 17.287 61.405-26.25c10.168-4.368 16.16-2.69 19.729 5.678 0.983 2.334 1.554 5.047 1.554 7.893 0 4.236-1.264 8.176-3.436 11.464l0.048-0.078-67.507 28.862 7.338 17.165 88.991-38.047zM809.159 213.666l-23.384 5.342c-2.517-3.211-5.394-5.977-8.611-8.301l-0.124-0.085 28.342-23.433-11.793-14.278-74.587 61.663 22.638 27.385c12.596 15.234 29.809 16.968 42.279 6.661l3.73-3.084c6.116-4.924 9.996-12.41 9.996-20.802 0-3.47-0.663-6.785-1.87-9.825l0.063 0.18 21.838-4.411c7.014-1.494 10.164 3.616 11.972 7.32l10.779-9.089c-8.299-13.749-14.278-19.218-31.251-15.239zM744.95 131.864l-5.014 4.953c-1.625-8.088-6.278-14.872-12.701-19.255l-0.105-0.067c-16.042-10.827-28.565-6.608-39.549 9.661l-38.366 56.828 15.579 10.517 37.361-55.334c6.189-9.172 12.103-11.011 19.655-5.905 5.416 3.812 8.91 10.037 8.91 17.078 0 0.040 0 0.080 0 0.12v-0.006l-41.056 60.837 15.466 10.439 54.159-80.195zM649.193 78.312l-5.281 7.622c-4.079-7.393-10.672-12.975-18.603-15.655l-0.235-0.069c-18.213-5.678-31.482 2.476-37.252 20.965l-11.356 36.295c-5.73 18.344 4.328 34.378 23.585 40.392 4.893 1.809 10.544 2.856 16.44 2.856 6.141 0 12.017-1.136 17.429-3.209l-0.334 0.112-2.944-14.684c-3.62 1.156-7.784 1.822-12.104 1.822-4.898 0-9.596-0.856-13.952-2.428l0.287 0.090c-8.976-2.804-13.361-10.548-10.046-21.105l10.225-32.727c3.258-10.426 10.046-14.536 18.755-11.793 6.302 2.085 11.234 6.793 13.576 12.798l0.051 0.148-4.411 14.121-17.292-5.403-4.656 14.916 34.976 10.919 16.2-51.866zM277.212 448c0 129.67 105.118 234.788 234.788 234.788s234.788-105.118 234.788-234.788c0-129.67-105.118-234.788-234.788-234.788v0c-129.609 0.152-234.637 105.179-234.788 234.774v0.015zM504.798 54.473l-57.103 5.608 9.452 96.316 18.44-1.808-7.862-80.081 38.667-3.796zM410.211 66.729l-18.964 7.294 1.821 23.585c-10.429 2.299-19.655 5.965-28.071 10.869l0.459-0.247-14.204-18.829-19.095 7.36 65.716 78.404 15.868-6.115zM296.394 120.080l-15.335 10.64 20.257 29.189 10.618 67.183 16.811-11.666-8.709-45.284 38.92 24.315 16.693-11.587-58.841-33.378zM207.849 197.152c-12.404 15.034-13.155 34.841 1.987 47.337l28.896 23.839c15.034 12.4 34.339 7.897 46.734-7.137 12.229-14.82 12.981-34.631-2.057-47.031l-28.896-23.839c-15.143-12.492-34.448-7.993-46.673 6.831zM178.874 275.508c-4.534-5.56-1.424-10.692 1.048-13.998l-13.016-5.438c-8.434 13.684-10.583 21.489 0.721 34.767l15.435 18.366c-1.612 3.364-2.833 7.267-3.464 11.365l-0.030 0.236-33.793-14.514-7.311 17.034 88.934 38.191 14.025-32.648c7.801-18.17 1.476-34.277-13.387-40.659l-4.446-1.909c-3.204-1.471-6.952-2.329-10.899-2.329-7.915 0-15.025 3.448-19.909 8.924l-0.023 0.026zM181.813 435.919c0.437-10.338-5.158-17.471-17.222-18.021-12.81-0.563-19.039 6.067-19.493 16.401-0.472 10.661 5.136 18.025 17.951 18.593 12.055 0.533 18.292-6.311 18.781-16.973zM141.325 577.379c6.381 18.711 21.873 26.433 37.182 21.214l4.582-1.564c10.797-3.574 18.45-13.577 18.45-25.368 0-0.072 0-0.144-0.001-0.216v0.011l21.974 3.608c7.089 1.088 8.224 6.988 8.604 11.090l13.304-4.682c-2.909-15.807-6.552-23.039-23.83-25.332l-23.764-3.293c-1.304-4.159-3.068-7.779-5.284-11.069l0.095 0.15 34.806-11.871-5.979-17.536-91.603 31.229zM193.103 680.19c11.312 15.536 30.312 21.201 46.070 9.727l30.29-22.048c15.876-11.552 16.322-31.373 5.014-46.909-11.474-15.763-30.469-21.423-46.341-9.871l-30.29 22.048c-15.763 11.474-16.213 31.29-4.739 47.053zM259.959 749.465l40.383-22.275-11.116 44.524 16.16 12.308 13.588-66.275 21.681-28.499-14.85-11.304-21.511 28.281-60.623 30.853zM367.937 813.277l68.271-76.303-18.742-7.862-14.99 18.296c-7.848-4.903-16.938-8.83-26.613-11.295l-0.668-0.144 2.773-23.419-18.868-7.91-6.853 102.064zM460.593 837.225l9.019-79.963 38.61 4.368 1.83-16.213-57.020-6.434-10.854 96.176zM579.747 767.731l11.697 36.169c5.914 18.274 23.376 25.56 42.576 19.344 11.365-3.235 20.79-10.167 27.125-19.389l0.107-0.165-10.88-10.281c-5.311 6.851-12.615 11.929-21.037 14.38l-0.29 0.072c-8.941 2.891-16.995-0.874-20.397-11.417l-10.548-32.613c-3.359-10.391-0.192-17.658 8.486-20.467 1.936-0.625 4.164-0.986 6.475-0.986 4.521 0 8.719 1.379 12.199 3.738l-0.076-0.049 4.551 14.068-17.226 5.573 4.804 14.85 34.854-11.273-16.719-51.674-13.020 4.21 0.092 9.268c-4.294-2.161-9.358-3.426-14.717-3.426-3.476 0-6.828 0.532-9.978 1.52l0.236-0.064c-18.148 5.87-24.267 20.196-18.314 38.606zM672.595 731.37l39.842 55.801 15.287-10.919-38.798-54.338c-6.429-9.002-6.089-15.191 1.337-20.489 3.306-2.311 7.411-3.693 11.838-3.693 2.652 0 5.189 0.496 7.522 1.4l-0.142-0.048 42.65 59.741 15.191-10.841-56.229-78.753-14.064 10.046 2.887 6.429c-1.487-0.258-3.2-0.406-4.948-0.406-6.614 0-12.733 2.116-17.718 5.709l0.090-0.062c-15.754 11.247-16.16 24.459-4.765 40.432zM826.752 682.513c11.937-15.759 9.666-32.91-3.228-42.676l-3.857-2.918c-4.478-3.531-10.201-5.664-16.423-5.664-5.64 0-10.871 1.753-15.178 4.743l0.088-0.058-9.308-20.227c-3.057-6.482 1.184-10.718 4.368-13.33l-11.325-8.408c-11.474 11.255-15.431 18.314-7.652 33.915l10.57 21.533c-2.431 3.001-4.5 6.44-6.055 10.147l-0.104 0.278-29.316-22.201-11.181 14.767 77.181 58.396zM879.028 438.754c-0.266-10.67-6.368-17.637-19.218-17.318-12.068 0.301-17.82 7.56-17.554 18.231 0.258 10.347 6.355 17.099 18.427 16.798 12.823-0.323 18.58-7.364 18.322-17.711zM870.332 611.766l6.316-17.707-62.894-22.432c-10.417-3.713-13.675-8.984-10.609-17.58 2.431-6.38 7.725-11.178 14.269-12.875l0.145-0.032 69.145 24.664 6.272-17.58-91.075-32.517-5.805 16.278 6.045 3.625c-7.231 3.501-12.757 9.572-15.464 16.998l-0.067 0.211c-6.503 18.226 0.699 29.311 19.187 35.907zM512 916.476c-258.73-0.002-468.472-209.745-468.472-468.476s209.744-468.476 468.476-468.476 468.476 209.744 468.476 468.476v0c-0.3 258.613-209.867 468.178-468.452 468.476h-0.029zM512-64c-282.708 0.178-511.819 229.398-511.819 512.131 0 210.75 127.301 391.768 309.202 470.353l3.32 1.277c58.582 25.295 126.79 40.006 198.434 40.006 282.842 0 512.131-229.289 512.131-512.131 0-210.54-127.046-391.406-308.657-470.117l-3.314-1.279c-58.523-25.44-126.692-40.24-198.317-40.24-0.344 0-0.689 0-1.033 0.001h0.054zM512 938.52c-270.82-0.214-490.279-219.806-490.279-490.655 0-201.885 121.93-375.293 296.166-450.599l3.181-1.224c55.626-23.756 120.346-37.567 188.292-37.567 270.979 0 490.651 219.672 490.651 490.651 0 201.019-120.887 373.804-293.928 449.622l-3.153 1.232c-56.061 24.369-121.363 38.546-189.976 38.546-0.335 0-0.669 0-1.004-0.001h0.052z" />
<glyph unicode="&#xe952;" glyph-name="rc-icon-stopwatch" d="M512.002 766.788v65.212h128v64c0 35.346-28.654 64-64.002 64h-191.998c-35.346 0-64-28.654-64-64v-64h128v-65.212c-214.798-16.338-384-195.802-384-414.788 0-229.75 186.25-416 416-416s416 186.25 416 416c0 218.984-169.202 398.448-384 414.788zM706.276 125.726c-60.442-60.44-140.798-93.726-226.274-93.726s-165.834 33.286-226.274 93.726c-60.44 60.44-93.726 140.8-93.726 226.274s33.286 165.834 93.726 226.274c58.040 58.038 134.448 91.018 216.114 93.548l-21.678-314.020c-1.86-26.29 12.464-37.802 31.836-37.802s33.698 11.512 31.836 37.802l-21.676 314.022c81.666-2.532 158.076-35.512 216.116-93.55 60.44-60.44 93.726-140.8 93.726-226.274s-33.286-165.834-93.726-226.274z" />
<glyph unicode="&#xe986;" glyph-name="rc-icon-search" d="M992.262 88.604l-242.552 206.294c-25.074 22.566-51.89 32.926-73.552 31.926 57.256 67.068 91.842 154.078 91.842 249.176 0 212.078-171.922 384-384 384-212.076 0-384-171.922-384-384s171.922-384 384-384c95.098 0 182.108 34.586 249.176 91.844-1-21.662 9.36-48.478 31.926-73.552l206.294-242.552c35.322-39.246 93.022-42.554 128.22-7.356s31.892 92.898-7.354 128.22zM384 320c-141.384 0-256 114.616-256 256s114.616 256 256 256 256-114.616 256-256-114.614-256-256-256z" />
<glyph unicode="&#xe99e;" glyph-name="rc-icon-trophy" d="M832 768v128h-640v-128h-192v-128c0-106.038 85.958-192 192-192 20.076 0 39.43 3.086 57.62 8.802 46.174-66.008 116.608-113.796 198.38-130.396v-198.406h-64c-70.694 0-128-57.306-128-128h512c0 70.694-57.306 128-128 128h-64v198.406c81.772 16.6 152.206 64.386 198.38 130.396 18.19-5.716 37.544-8.802 57.62-8.802 106.042 0 192 85.962 192 192v128h-192zM192 524c-63.962 0-116 52.038-116 116v64h116v-64c0-40.186 7.43-78.632 20.954-114.068-6.802-1.246-13.798-1.932-20.954-1.932zM948 640c0-63.962-52.038-116-116-116-7.156 0-14.152 0.686-20.954 1.932 13.524 35.436 20.954 73.882 20.954 114.068v64h116v-64z" />
</font>
</defs>
</svg>
